<svg width="593" height="190" viewBox="0 0 593 190" fill="none" xmlns="http://www.w3.org/2000/svg">
<rect opacity="0.2" x="19.3383" width="271" height="146" rx="20" transform="rotate(7.61142 19.3383 0)" fill="white"/>
<rect x="8.47501" y="17.3057" width="271" height="146" rx="20" fill="white"/>
<path d="M44.4746 65.3037C49.9975 65.3037 54.4746 60.8266 54.4746 55.3037C54.4746 49.7809 49.9975 45.3037 44.4746 45.3037C38.9518 45.3037 34.4746 49.7809 34.4746 55.3037C34.4746 60.8266 38.9518 65.3037 44.4746 65.3037Z" stroke="#9DA7E0" stroke-width="2" stroke-linecap="round" stroke-linejoin="round"/>
<path d="M44.4746 49.3037V55.3037L48.4746 53.3037" stroke="#9DA7E0" stroke-width="2" stroke-linecap="round" stroke-linejoin="round"/>
<path d="M66.095 62.3037V48.1637H71.715C72.315 48.1637 72.8883 48.217 73.435 48.3237C73.995 48.4304 74.4817 48.617 74.895 48.8837C75.3217 49.1504 75.6617 49.5104 75.915 49.9637C76.1683 50.417 76.295 50.997 76.295 51.7037C76.295 52.3837 76.155 52.9904 75.875 53.5237C75.595 54.057 75.135 54.477 74.495 54.7837C75.3617 54.997 75.995 55.4037 76.395 56.0037C76.795 56.5904 76.995 57.3104 76.995 58.1637C76.995 59.057 76.815 59.777 76.455 60.3237C76.095 60.857 75.635 61.2704 75.075 61.5637C74.515 61.857 73.895 62.057 73.215 62.1637C72.5483 62.257 71.9083 62.3037 71.295 62.3037H66.095ZM68.415 50.2437V54.1237H71.115C71.4483 54.1237 71.7883 54.097 72.135 54.0437C72.495 53.9904 72.815 53.8904 73.095 53.7437C73.375 53.5837 73.6017 53.377 73.775 53.1237C73.9617 52.857 74.055 52.5104 74.055 52.0837C74.055 51.6704 73.9817 51.3437 73.835 51.1037C73.6883 50.8504 73.495 50.6637 73.255 50.5437C73.015 50.4104 72.735 50.3304 72.415 50.3037C72.1083 50.2637 71.7883 50.2437 71.455 50.2437H68.415ZM68.415 60.2437H71.255C71.615 60.2437 71.995 60.2237 72.395 60.1837C72.8083 60.1304 73.1817 60.0304 73.515 59.8837C73.8483 59.7237 74.1217 59.5037 74.335 59.2237C74.5617 58.9437 74.675 58.5637 74.675 58.0837C74.675 57.6837 74.5883 57.357 74.415 57.1037C74.255 56.837 74.0417 56.637 73.775 56.5037C73.5083 56.357 73.2083 56.257 72.875 56.2037C72.555 56.1504 72.2283 56.1237 71.895 56.1237C71.6017 56.1237 71.3083 56.1237 71.015 56.1237L69.295 56.1437C69.0017 56.1437 68.7083 56.1437 68.415 56.1437V60.2437ZM81.3934 66.4037H79.1134V51.7637H81.2734L81.3934 53.2637C81.7801 52.717 82.2801 52.3037 82.8934 52.0237C83.5201 51.7304 84.1734 51.5837 84.8534 51.5837C85.5734 51.5837 86.2201 51.717 86.7934 51.9837C87.3668 52.237 87.8534 52.597 88.2534 53.0637C88.6668 53.5304 88.9734 54.097 89.1734 54.7637C89.3868 55.417 89.4934 56.1637 89.4934 57.0037C89.4934 57.7904 89.3934 58.517 89.1934 59.1837C88.9934 59.8504 88.6934 60.4304 88.2934 60.9237C87.9068 61.4037 87.4201 61.777 86.8334 62.0437C86.2601 62.3104 85.5601 62.4437 84.7334 62.4437C84.0934 62.4437 83.4801 62.3437 82.8934 62.1437C82.3201 61.9304 81.8201 61.5837 81.3934 61.1037V66.4037ZM84.3734 60.4637C84.8668 60.4637 85.2934 60.377 85.6534 60.2037C86.0134 60.017 86.3068 59.7704 86.5334 59.4637C86.7734 59.157 86.9468 58.797 87.0534 58.3837C87.1734 57.9704 87.2334 57.5237 87.2334 57.0437C87.2334 56.5637 87.1734 56.117 87.0534 55.7037C86.9468 55.277 86.7734 54.9104 86.5334 54.6037C86.3068 54.297 86.0068 54.057 85.6334 53.8837C85.2734 53.7104 84.8401 53.6237 84.3334 53.6237C83.8801 53.6237 83.4601 53.717 83.0734 53.9037C82.7001 54.0904 82.3868 54.337 82.1334 54.6437C81.8801 54.9504 81.6868 55.317 81.5534 55.7437C81.4334 56.157 81.3734 56.5837 81.3734 57.0237C81.3734 57.5037 81.4334 57.957 81.5534 58.3837C81.6734 58.797 81.8534 59.157 82.0934 59.4637C82.3468 59.757 82.6601 59.997 83.0334 60.1837C83.4068 60.3704 83.8534 60.4637 84.3734 60.4637ZM93.3763 57.8037C93.4029 58.1904 93.4829 58.5504 93.6163 58.8837C93.7496 59.217 93.9296 59.5104 94.1563 59.7637C94.3829 60.0037 94.6629 60.197 94.9963 60.3437C95.3429 60.4904 95.7429 60.5637 96.1963 60.5637C96.6763 60.5637 97.1163 60.477 97.5163 60.3037C97.9296 60.1304 98.2296 59.8304 98.4163 59.4037H100.756C100.623 59.937 100.403 60.397 100.096 60.7837C99.8029 61.1704 99.4496 61.4904 99.0363 61.7437C98.6363 61.9837 98.1896 62.1637 97.6963 62.2837C97.2163 62.3904 96.7029 62.4437 96.1563 62.4437C95.3163 62.4437 94.5763 62.317 93.9363 62.0637C93.3096 61.8104 92.7829 61.4437 92.3563 60.9637C91.9296 60.4837 91.6096 59.917 91.3963 59.2637C91.1963 58.597 91.0963 57.8504 91.0963 57.0237C91.0963 56.2237 91.2096 55.497 91.4363 54.8437C91.6629 54.177 91.9896 53.6037 92.4163 53.1237C92.8563 52.6437 93.3829 52.2704 93.9963 52.0037C94.6096 51.7237 95.3096 51.5837 96.0963 51.5837C96.9229 51.5837 97.6363 51.7237 98.2363 52.0037C98.8363 52.2704 99.3363 52.637 99.7363 53.1037C100.15 53.5704 100.456 54.117 100.656 54.7437C100.856 55.3704 100.956 56.0504 100.956 56.7837C100.956 57.1304 100.936 57.4704 100.896 57.8037H93.3763ZM98.7363 56.0837C98.6963 55.257 98.4363 54.6304 97.9563 54.2037C97.4896 53.777 96.8763 53.5637 96.1163 53.5637C95.6896 53.5637 95.3163 53.6304 94.9963 53.7637C94.6763 53.897 94.4029 54.077 94.1763 54.3037C93.9629 54.5304 93.7896 54.797 93.6563 55.1037C93.5229 55.4104 93.4363 55.737 93.3963 56.0837H98.7363ZM103.02 51.7637H105.76L108.94 56.7837L112.1 51.7637H114.78V62.3037H112.54V54.7437L109.2 59.9437H108.66L105.26 54.7437V62.3037H103.02V51.7637ZM125.918 62.3037H123.658V58.7037H121.758L119.298 62.3037H116.618L119.478 58.3437C118.664 58.1437 118.044 57.777 117.618 57.2437C117.204 56.7104 116.998 56.0304 116.998 55.2037C116.998 54.5504 117.104 54.0037 117.318 53.5637C117.544 53.1237 117.851 52.7704 118.238 52.5037C118.638 52.2237 119.091 52.0304 119.598 51.9237C120.104 51.817 120.651 51.7637 121.238 51.7637H125.918V62.3037ZM123.658 53.6637H121.398C121.144 53.6637 120.891 53.6837 120.638 53.7237C120.384 53.7504 120.151 53.8237 119.938 53.9437C119.738 54.0504 119.578 54.2037 119.458 54.4037C119.338 54.6037 119.278 54.8437 119.278 55.1237C119.278 55.1637 119.278 55.197 119.278 55.2237C119.278 55.5704 119.378 55.8637 119.578 56.1037C119.778 56.3437 120.038 56.517 120.358 56.6237C120.678 56.717 120.971 56.777 121.238 56.8037C121.504 56.817 121.771 56.8237 122.038 56.8237H123.658V53.6637ZM136.081 66.4037H133.801V51.7637H135.961L136.081 53.2637C136.468 52.717 136.968 52.3037 137.581 52.0237C138.208 51.7304 138.861 51.5837 139.541 51.5837C140.261 51.5837 140.908 51.717 141.481 51.9837C142.054 52.237 142.541 52.597 142.941 53.0637C143.354 53.5304 143.661 54.097 143.861 54.7637C144.074 55.417 144.181 56.1637 144.181 57.0037C144.181 57.7904 144.081 58.517 143.881 59.1837C143.681 59.8504 143.381 60.4304 142.981 60.9237C142.594 61.4037 142.108 61.777 141.521 62.0437C140.948 62.3104 140.248 62.4437 139.421 62.4437C138.781 62.4437 138.168 62.3437 137.581 62.1437C137.008 61.9304 136.508 61.5837 136.081 61.1037V66.4037ZM139.061 60.4637C139.554 60.4637 139.981 60.377 140.341 60.2037C140.701 60.017 140.994 59.7704 141.221 59.4637C141.461 59.157 141.634 58.797 141.741 58.3837C141.861 57.9704 141.921 57.5237 141.921 57.0437C141.921 56.5637 141.861 56.117 141.741 55.7037C141.634 55.277 141.461 54.9104 141.221 54.6037C140.994 54.297 140.694 54.057 140.321 53.8837C139.961 53.7104 139.528 53.6237 139.021 53.6237C138.568 53.6237 138.148 53.717 137.761 53.9037C137.388 54.0904 137.074 54.337 136.821 54.6437C136.568 54.9504 136.374 55.317 136.241 55.7437C136.121 56.157 136.061 56.5837 136.061 57.0237C136.061 57.5037 136.121 57.957 136.241 58.3837C136.361 58.797 136.541 59.157 136.781 59.4637C137.034 59.757 137.348 59.997 137.721 60.1837C138.094 60.3704 138.541 60.4637 139.061 60.4637ZM148.064 57.8037C148.09 58.1904 148.17 58.5504 148.304 58.8837C148.437 59.217 148.617 59.5104 148.844 59.7637C149.07 60.0037 149.35 60.197 149.684 60.3437C150.03 60.4904 150.43 60.5637 150.884 60.5637C151.364 60.5637 151.804 60.477 152.204 60.3037C152.617 60.1304 152.917 59.8304 153.104 59.4037H155.444C155.31 59.937 155.09 60.397 154.784 60.7837C154.49 61.1704 154.137 61.4904 153.724 61.7437C153.324 61.9837 152.877 62.1637 152.384 62.2837C151.904 62.3904 151.39 62.4437 150.844 62.4437C150.004 62.4437 149.264 62.317 148.624 62.0637C147.997 61.8104 147.47 61.4437 147.044 60.9637C146.617 60.4837 146.297 59.917 146.084 59.2637C145.884 58.597 145.784 57.8504 145.784 57.0237C145.784 56.2237 145.897 55.497 146.124 54.8437C146.35 54.177 146.677 53.6037 147.104 53.1237C147.544 52.6437 148.07 52.2704 148.684 52.0037C149.297 51.7237 149.997 51.5837 150.784 51.5837C151.61 51.5837 152.324 51.7237 152.924 52.0037C153.524 52.2704 154.024 52.637 154.424 53.1037C154.837 53.5704 155.144 54.117 155.344 54.7437C155.544 55.3704 155.644 56.0504 155.644 56.7837C155.644 57.1304 155.624 57.4704 155.584 57.8037H148.064ZM153.424 56.0837C153.384 55.257 153.124 54.6304 152.644 54.2037C152.177 53.777 151.564 53.5637 150.804 53.5637C150.377 53.5637 150.004 53.6304 149.684 53.7637C149.364 53.897 149.09 54.077 148.864 54.3037C148.65 54.5304 148.477 54.797 148.344 55.1037C148.21 55.4104 148.124 55.737 148.084 56.0837H153.424ZM164.507 61.0037C164.161 61.497 163.701 61.8637 163.127 62.1037C162.554 62.3304 161.914 62.4437 161.207 62.4437C160.647 62.4437 160.134 62.377 159.667 62.2437C159.214 62.1104 158.814 61.9104 158.467 61.6437C158.121 61.3637 157.847 61.0237 157.647 60.6237C157.447 60.2104 157.347 59.7437 157.347 59.2237C157.347 58.6504 157.461 58.1637 157.687 57.7637C157.914 57.3504 158.221 57.017 158.607 56.7637C159.007 56.5104 159.474 56.3237 160.007 56.2037C160.541 56.0704 161.101 56.0037 161.687 56.0037H164.387C164.387 55.2304 164.214 54.6304 163.867 54.2037C163.521 53.777 162.914 53.557 162.047 53.5437C161.541 53.5437 161.101 53.6304 160.727 53.8037C160.367 53.977 160.127 54.2637 160.007 54.6637H157.667C157.747 54.1037 157.927 53.6304 158.207 53.2437C158.501 52.857 158.847 52.537 159.247 52.2837C159.661 52.0304 160.114 51.8504 160.607 51.7437C161.114 51.637 161.621 51.5837 162.127 51.5837C162.781 51.5837 163.387 51.6704 163.947 51.8437C164.507 52.017 164.994 52.3104 165.407 52.7237C165.874 53.2037 166.187 53.777 166.347 54.4437C166.507 55.1104 166.587 55.837 166.587 56.6237V62.3037H164.607L164.507 61.0037ZM164.387 57.6237H162.187C161.801 57.6237 161.414 57.657 161.027 57.7237C160.641 57.777 160.307 57.917 160.027 58.1437C159.761 58.357 159.627 58.6704 159.627 59.0837C159.627 59.5904 159.807 59.977 160.167 60.2437C160.541 60.497 160.994 60.6237 161.527 60.6237C161.941 60.6237 162.321 60.5704 162.667 60.4637C163.027 60.357 163.334 60.1837 163.587 59.9437C163.841 59.6904 164.034 59.377 164.167 59.0037C164.314 58.617 164.387 58.157 164.387 57.6237ZM169.035 62.3037V51.7637H171.295V56.0637H172.915L175.615 51.7637H178.215L174.875 56.7837L178.475 62.3037H175.835L173.055 58.0437H171.295V62.3037H169.035ZM186.618 60.3637V51.7637H188.898V60.3637H190.318V65.3837H188.078V62.3037H179.758V51.7637H182.018V60.3637H186.618ZM194.026 62.3037H191.906V51.7637H194.186V59.0037L199.546 51.7637H201.606V62.3037H199.326V55.2037C199.313 55.2304 197.546 57.597 194.026 62.3037ZM206.214 62.3037H204.094V51.7637H206.374V59.0037L211.734 51.7637H213.794V62.3037H211.514V55.2037C211.501 55.2304 209.734 57.597 206.214 62.3037ZM65.715 73.7637H68.455L71.635 78.7837L74.795 73.7637H77.475V84.3037H75.235V76.7437L71.895 81.9437H71.355L67.955 76.7437V84.3037H65.715V73.7637ZM81.8528 79.8037C81.8795 80.1904 81.9595 80.5504 82.0928 80.8837C82.2262 81.217 82.4062 81.5104 82.6328 81.7637C82.8595 82.0037 83.1395 82.197 83.4728 82.3437C83.8195 82.4904 84.2195 82.5637 84.6728 82.5637C85.1528 82.5637 85.5928 82.477 85.9928 82.3037C86.4062 82.1304 86.7062 81.8304 86.8928 81.4037H89.2328C89.0995 81.937 88.8795 82.397 88.5728 82.7837C88.2795 83.1704 87.9262 83.4904 87.5128 83.7437C87.1128 83.9837 86.6662 84.1637 86.1728 84.2837C85.6928 84.3904 85.1795 84.4437 84.6328 84.4437C83.7928 84.4437 83.0528 84.317 82.4128 84.0637C81.7862 83.8104 81.2595 83.4437 80.8328 82.9637C80.4062 82.4837 80.0862 81.917 79.8728 81.2637C79.6728 80.597 79.5728 79.8504 79.5728 79.0237C79.5728 78.2237 79.6862 77.497 79.9128 76.8437C80.1395 76.177 80.4662 75.6037 80.8928 75.1237C81.3328 74.6437 81.8595 74.2704 82.4728 74.0037C83.0862 73.7237 83.7862 73.5837 84.5728 73.5837C85.3995 73.5837 86.1128 73.7237 86.7128 74.0037C87.3128 74.2704 87.8128 74.637 88.2128 75.1037C88.6262 75.5704 88.9328 76.117 89.1328 76.7437C89.3328 77.3704 89.4328 78.0504 89.4328 78.7837C89.4328 79.1304 89.4128 79.4704 89.3728 79.8037H81.8528ZM87.2128 78.0837C87.1728 77.257 86.9128 76.6304 86.4328 76.2037C85.9662 75.777 85.3528 75.5637 84.5928 75.5637C84.1662 75.5637 83.7928 75.6304 83.4728 75.7637C83.1528 75.897 82.8795 76.077 82.6528 76.3037C82.4395 76.5304 82.2662 76.797 82.1328 77.1037C81.9995 77.4104 81.9128 77.737 81.8728 78.0837H87.2128ZM91.4963 84.3037V73.7637H93.7763V78.1037H98.4563V73.7637H100.736V84.3037H98.4563V80.0837H93.7763V84.3037H91.4963ZM105.095 79.8037C105.122 80.1904 105.202 80.5504 105.335 80.8837C105.468 81.217 105.648 81.5104 105.875 81.7637C106.102 82.0037 106.382 82.197 106.715 82.3437C107.062 82.4904 107.462 82.5637 107.915 82.5637C108.395 82.5637 108.835 82.477 109.235 82.3037C109.648 82.1304 109.948 81.8304 110.135 81.4037H112.475C112.342 81.937 112.122 82.397 111.815 82.7837C111.522 83.1704 111.168 83.4904 110.755 83.7437C110.355 83.9837 109.908 84.1637 109.415 84.2837C108.935 84.3904 108.422 84.4437 107.875 84.4437C107.035 84.4437 106.295 84.317 105.655 84.0637C105.028 83.8104 104.502 83.4437 104.075 82.9637C103.648 82.4837 103.328 81.917 103.115 81.2637C102.915 80.597 102.815 79.8504 102.815 79.0237C102.815 78.2237 102.928 77.497 103.155 76.8437C103.382 76.177 103.708 75.6037 104.135 75.1237C104.575 74.6437 105.102 74.2704 105.715 74.0037C106.328 73.7237 107.028 73.5837 107.815 73.5837C108.642 73.5837 109.355 73.7237 109.955 74.0037C110.555 74.2704 111.055 74.637 111.455 75.1037C111.868 75.5704 112.175 76.117 112.375 76.7437C112.575 77.3704 112.675 78.0504 112.675 78.7837C112.675 79.1304 112.655 79.4704 112.615 79.8037H105.095ZM110.455 78.0837C110.415 77.257 110.155 76.6304 109.675 76.2037C109.208 75.777 108.595 75.5637 107.835 75.5637C107.408 75.5637 107.035 75.6304 106.715 75.7637C106.395 75.897 106.122 76.077 105.895 76.3037C105.682 76.5304 105.508 76.797 105.375 77.1037C105.242 77.4104 105.155 77.737 105.115 78.0837H110.455ZM116.618 79.8037C116.645 80.1904 116.725 80.5504 116.858 80.8837C116.992 81.217 117.172 81.5104 117.398 81.7637C117.625 82.0037 117.905 82.197 118.238 82.3437C118.585 82.4904 118.985 82.5637 119.438 82.5637C119.918 82.5637 120.358 82.477 120.758 82.3037C121.172 82.1304 121.472 81.8304 121.658 81.4037H123.998C123.865 81.937 123.645 82.397 123.338 82.7837C123.045 83.1704 122.692 83.4904 122.278 83.7437C121.878 83.9837 121.432 84.1637 120.938 84.2837C120.458 84.3904 119.945 84.4437 119.398 84.4437C118.558 84.4437 117.818 84.317 117.178 84.0637C116.552 83.8104 116.025 83.4437 115.598 82.9637C115.172 82.4837 114.852 81.917 114.638 81.2637C114.438 80.597 114.338 79.8504 114.338 79.0237C114.338 78.2237 114.452 77.497 114.678 76.8437C114.905 76.177 115.232 75.6037 115.658 75.1237C116.098 74.6437 116.625 74.2704 117.238 74.0037C117.852 73.7237 118.552 73.5837 119.338 73.5837C120.165 73.5837 120.878 73.7237 121.478 74.0037C122.078 74.2704 122.578 74.637 122.978 75.1037C123.392 75.5704 123.698 76.117 123.898 76.7437C124.098 77.3704 124.198 78.0504 124.198 78.7837C124.198 79.1304 124.178 79.4704 124.138 79.8037H116.618ZM121.978 78.0837C121.938 77.257 121.678 76.6304 121.198 76.2037C120.732 75.777 120.118 75.5637 119.358 75.5637C118.932 75.5637 118.558 75.6304 118.238 75.7637C117.918 75.897 117.645 76.077 117.418 76.3037C117.205 76.5304 117.032 76.797 116.898 77.1037C116.765 77.4104 116.678 77.737 116.638 78.0837H121.978Z" fill="#202020"/>
<path d="M105.405 105.399H107.46L109.845 109.164L112.215 105.399H114.225V113.304H112.545V107.634L110.04 111.534H109.635L107.085 107.634V113.304H105.405V105.399ZM117.688 113.304H116.098V105.399H117.808V110.829L121.828 105.399H123.373V113.304H121.663V107.979C121.653 107.999 120.328 109.774 117.688 113.304ZM125.239 113.304V105.399H126.949V108.654H130.459V105.399H132.169V113.304H130.459V110.139H126.949V113.304H125.239ZM139.698 105.399H141.573L139.293 112.044C139.003 112.864 138.738 113.589 138.498 114.219C138.268 114.849 137.993 115.374 137.673 115.794C137.353 116.214 136.958 116.529 136.488 116.739C136.028 116.959 135.423 117.069 134.673 117.069H134.418V115.539C134.458 115.539 134.498 115.539 134.538 115.539C134.838 115.539 135.103 115.504 135.333 115.434C135.573 115.364 135.788 115.259 135.978 115.119C136.168 114.979 136.333 114.794 136.473 114.564C136.613 114.344 136.743 114.089 136.863 113.799L133.278 105.399H135.288L137.748 111.654L139.698 105.399ZM148.924 105.399V106.884H146.254V113.304H144.559V106.884H141.889V105.399H148.924ZM109.86 119.109C109.36 119.719 108.935 120.339 108.585 120.969C108.235 121.589 107.95 122.219 107.73 122.859C107.51 123.499 107.35 124.144 107.25 124.794C107.15 125.444 107.095 126.094 107.085 126.744C107.105 128.064 107.325 129.359 107.745 130.629C108.165 131.889 108.865 133.129 109.845 134.349H107.925C107.495 133.809 107.12 133.229 106.8 132.609C106.48 131.999 106.215 131.369 106.005 130.719C105.795 130.059 105.635 129.394 105.525 128.724C105.425 128.054 105.375 127.394 105.375 126.744C105.375 126.094 105.425 125.434 105.525 124.764C105.635 124.084 105.795 123.414 106.005 122.754C106.225 122.094 106.495 121.459 106.815 120.849C107.135 120.229 107.51 119.649 107.94 119.109H109.86ZM110.268 123.399H113.643C113.993 123.399 114.348 123.419 114.708 123.459C115.068 123.489 115.393 123.574 115.683 123.714C115.983 123.854 116.223 124.059 116.403 124.329C116.593 124.589 116.693 124.944 116.703 125.394C116.703 125.744 116.623 126.069 116.463 126.369C116.303 126.669 116.048 126.914 115.698 127.104C116.178 127.234 116.528 127.464 116.748 127.794C116.978 128.114 117.093 128.499 117.093 128.949C117.093 129.369 117.008 129.734 116.838 130.044C116.668 130.344 116.443 130.589 116.163 130.779C115.883 130.959 115.558 131.094 115.188 131.184C114.818 131.264 114.428 131.304 114.018 131.304H110.268V123.399ZM111.993 124.824V126.639H113.028C113.258 126.639 113.493 126.639 113.733 126.639C113.983 126.629 114.203 126.594 114.393 126.534C114.593 126.474 114.753 126.379 114.873 126.249C115.003 126.119 115.068 125.934 115.068 125.694C115.068 125.484 115.018 125.324 114.918 125.214C114.828 125.094 114.713 125.004 114.573 124.944C114.433 124.884 114.273 124.849 114.093 124.839C113.923 124.829 113.763 124.824 113.613 124.824H111.993ZM113.733 129.864C113.933 129.864 114.128 129.854 114.318 129.834C114.518 129.814 114.693 129.769 114.843 129.699C115.003 129.619 115.133 129.519 115.233 129.399C115.333 129.269 115.383 129.099 115.383 128.889C115.383 128.509 115.263 128.254 115.023 128.124C114.793 127.994 114.508 127.929 114.168 127.929H111.993V129.864H113.733ZM124.429 134.379H122.719V123.399H124.339L124.429 124.524C124.719 124.114 125.094 123.804 125.554 123.594C126.024 123.374 126.514 123.264 127.024 123.264C127.564 123.264 128.049 123.364 128.479 123.564C128.909 123.754 129.274 124.024 129.574 124.374C129.884 124.724 130.114 125.149 130.264 125.649C130.424 126.139 130.504 126.699 130.504 127.329C130.504 127.919 130.429 128.464 130.279 128.964C130.129 129.464 129.904 129.899 129.604 130.269C129.314 130.629 128.949 130.909 128.509 131.109C128.079 131.309 127.554 131.409 126.934 131.409C126.454 131.409 125.994 131.334 125.554 131.184C125.124 131.024 124.749 130.764 124.429 130.404V134.379ZM126.664 129.924C127.034 129.924 127.354 129.859 127.624 129.729C127.894 129.589 128.114 129.404 128.284 129.174C128.464 128.944 128.594 128.674 128.674 128.364C128.764 128.054 128.809 127.719 128.809 127.359C128.809 126.999 128.764 126.664 128.674 126.354C128.594 126.034 128.464 125.759 128.284 125.529C128.114 125.299 127.889 125.119 127.609 124.989C127.339 124.859 127.014 124.794 126.634 124.794C126.294 124.794 125.979 124.864 125.689 125.004C125.409 125.144 125.174 125.329 124.984 125.559C124.794 125.789 124.649 126.064 124.549 126.384C124.459 126.694 124.414 127.014 124.414 127.344C124.414 127.704 124.459 128.044 124.549 128.364C124.639 128.674 124.774 128.944 124.954 129.174C125.144 129.394 125.379 129.574 125.659 129.714C125.939 129.854 126.274 129.924 126.664 129.924ZM137.107 130.329C136.847 130.699 136.502 130.974 136.072 131.154C135.642 131.324 135.162 131.409 134.632 131.409C134.212 131.409 133.827 131.359 133.477 131.259C133.137 131.159 132.837 131.009 132.577 130.809C132.317 130.599 132.112 130.344 131.962 130.044C131.812 129.734 131.737 129.384 131.737 128.994C131.737 128.564 131.822 128.199 131.992 127.899C132.162 127.589 132.392 127.339 132.682 127.149C132.982 126.959 133.332 126.819 133.732 126.729C134.132 126.629 134.552 126.579 134.992 126.579H137.017C137.017 125.999 136.887 125.549 136.627 125.229C136.367 124.909 135.912 124.744 135.262 124.734C134.882 124.734 134.552 124.799 134.272 124.929C134.002 125.059 133.822 125.274 133.732 125.574H131.977C132.037 125.154 132.172 124.799 132.382 124.509C132.602 124.219 132.862 123.979 133.162 123.789C133.472 123.599 133.812 123.464 134.182 123.384C134.562 123.304 134.942 123.264 135.322 123.264C135.812 123.264 136.267 123.329 136.687 123.459C137.107 123.589 137.472 123.809 137.782 124.119C138.132 124.479 138.367 124.909 138.487 125.409C138.607 125.909 138.667 126.454 138.667 127.044V131.304H137.182L137.107 130.329ZM137.017 127.794H135.367C135.077 127.794 134.787 127.819 134.497 127.869C134.207 127.909 133.957 128.014 133.747 128.184C133.547 128.344 133.447 128.579 133.447 128.889C133.447 129.269 133.582 129.559 133.852 129.759C134.132 129.949 134.472 130.044 134.872 130.044C135.182 130.044 135.467 130.004 135.727 129.924C135.997 129.844 136.227 129.714 136.417 129.534C136.607 129.344 136.752 129.109 136.852 128.829C136.962 128.539 137.017 128.194 137.017 127.794ZM141.853 125.034C142.173 124.634 142.573 124.349 143.053 124.179C143.533 123.999 144.018 123.909 144.508 123.909C145.048 123.909 145.528 123.994 145.948 124.164C146.378 124.334 146.743 124.574 147.043 124.884C147.343 125.194 147.573 125.569 147.733 126.009C147.893 126.439 147.973 126.924 147.973 127.464C147.973 128.044 147.883 128.579 147.703 129.069C147.533 129.559 147.278 129.979 146.938 130.329C146.608 130.669 146.203 130.934 145.723 131.124C145.253 131.314 144.718 131.409 144.118 131.409C143.328 131.399 142.678 131.239 142.168 130.929C141.668 130.619 141.273 130.219 140.983 129.729C140.693 129.239 140.493 128.689 140.383 128.079C140.273 127.459 140.218 126.834 140.218 126.204C140.218 125.574 140.263 124.929 140.353 124.269C140.453 123.609 140.648 123.024 140.938 122.514C141.178 122.114 141.453 121.799 141.763 121.569C142.083 121.329 142.433 121.149 142.813 121.029C143.193 120.899 143.598 120.804 144.028 120.744C144.458 120.684 144.903 120.624 145.363 120.564C145.713 120.524 146.068 120.484 146.428 120.444C146.798 120.404 147.158 120.324 147.508 120.204V121.839C147.328 121.919 147.078 121.984 146.758 122.034C146.438 122.074 146.098 122.114 145.738 122.154C145.378 122.184 145.023 122.219 144.673 122.259C144.323 122.289 144.013 122.324 143.743 122.364C143.423 122.414 143.138 122.524 142.888 122.694C142.648 122.854 142.453 123.054 142.303 123.294C142.153 123.524 142.043 123.794 141.973 124.104C141.903 124.404 141.863 124.714 141.853 125.034ZM144.163 129.924C144.503 129.924 144.803 129.859 145.063 129.729C145.333 129.599 145.558 129.434 145.738 129.234C145.918 129.024 146.053 128.784 146.143 128.514C146.233 128.234 146.278 127.944 146.278 127.644C146.278 127.334 146.228 127.044 146.128 126.774C146.038 126.494 145.903 126.259 145.723 126.069C145.553 125.869 145.343 125.714 145.093 125.604C144.843 125.494 144.558 125.439 144.238 125.439C143.908 125.439 143.608 125.494 143.338 125.604C143.078 125.704 142.853 125.854 142.663 126.054C142.483 126.244 142.338 126.474 142.228 126.744C142.118 127.014 142.058 127.304 142.048 127.614C142.048 127.914 142.088 128.204 142.168 128.484C142.248 128.754 142.373 128.994 142.543 129.204C142.723 129.414 142.943 129.589 143.203 129.729C143.473 129.859 143.793 129.924 144.163 129.924ZM153.023 123.264C153.653 123.264 154.208 123.364 154.688 123.564C155.168 123.764 155.573 124.044 155.903 124.404C156.243 124.754 156.498 125.179 156.668 125.679C156.838 126.179 156.923 126.734 156.923 127.344C156.923 127.964 156.838 128.524 156.668 129.024C156.508 129.514 156.263 129.939 155.933 130.299C155.603 130.659 155.193 130.934 154.703 131.124C154.223 131.314 153.663 131.409 153.023 131.409C152.393 131.409 151.838 131.314 151.358 131.124C150.878 130.924 150.473 130.649 150.143 130.299C149.823 129.939 149.578 129.509 149.408 129.009C149.248 128.509 149.168 127.954 149.168 127.344C149.168 126.734 149.248 126.179 149.408 125.679C149.578 125.179 149.828 124.754 150.158 124.404C150.488 124.044 150.893 123.764 151.373 123.564C151.853 123.364 152.403 123.264 153.023 123.264ZM153.023 129.924C153.413 129.924 153.743 129.859 154.013 129.729C154.293 129.589 154.518 129.404 154.688 129.174C154.868 128.944 154.998 128.674 155.078 128.364C155.168 128.054 155.213 127.719 155.213 127.359C155.213 126.999 155.168 126.664 155.078 126.354C154.998 126.034 154.868 125.759 154.688 125.529C154.518 125.299 154.293 125.119 154.013 124.989C153.743 124.859 153.413 124.794 153.023 124.794C152.643 124.794 152.313 124.859 152.033 124.989C151.763 125.119 151.538 125.299 151.358 125.529C151.188 125.759 151.058 126.034 150.968 126.354C150.888 126.664 150.848 126.999 150.848 127.359C150.848 127.719 150.888 128.054 150.968 128.364C151.058 128.674 151.188 128.944 151.358 129.174C151.538 129.404 151.763 129.589 152.033 129.729C152.313 129.859 152.643 129.924 153.023 129.924ZM158.131 123.399H159.841V124.959C159.841 125.359 159.856 125.694 159.886 125.964C159.926 126.234 160.006 126.459 160.126 126.639C160.246 126.809 160.421 126.934 160.651 127.014C160.881 127.084 161.191 127.119 161.581 127.119C161.831 127.119 162.101 127.109 162.391 127.089C162.681 127.059 162.921 127.029 163.111 126.999V123.399H164.806V131.304H163.111V128.484C162.881 128.524 162.611 128.554 162.301 128.574C161.991 128.594 161.706 128.604 161.446 128.604C161.336 128.604 161.226 128.604 161.116 128.604C160.636 128.594 160.211 128.534 159.841 128.424C159.471 128.304 159.156 128.124 158.896 127.884C158.646 127.634 158.456 127.304 158.326 126.894C158.196 126.484 158.131 125.979 158.131 125.379V123.399ZM168.089 127.929C168.109 128.219 168.169 128.489 168.269 128.739C168.369 128.989 168.504 129.209 168.674 129.399C168.844 129.579 169.054 129.724 169.304 129.834C169.564 129.944 169.864 129.999 170.204 129.999C170.564 129.999 170.894 129.934 171.194 129.804C171.504 129.674 171.729 129.449 171.869 129.129H173.624C173.524 129.529 173.359 129.874 173.129 130.164C172.909 130.454 172.644 130.694 172.334 130.884C172.034 131.064 171.699 131.199 171.329 131.289C170.969 131.369 170.584 131.409 170.174 131.409C169.544 131.409 168.989 131.314 168.509 131.124C168.039 130.934 167.644 130.659 167.324 130.299C167.004 129.939 166.764 129.514 166.604 129.024C166.454 128.524 166.379 127.964 166.379 127.344C166.379 126.744 166.464 126.199 166.634 125.709C166.804 125.209 167.049 124.779 167.369 124.419C167.699 124.059 168.094 123.779 168.554 123.579C169.014 123.369 169.539 123.264 170.129 123.264C170.749 123.264 171.284 123.369 171.734 123.579C172.184 123.779 172.559 124.054 172.859 124.404C173.169 124.754 173.399 125.164 173.549 125.634C173.699 126.104 173.774 126.614 173.774 127.164C173.774 127.424 173.759 127.679 173.729 127.929H168.089ZM172.109 126.639C172.079 126.019 171.884 125.549 171.524 125.229C171.174 124.909 170.714 124.749 170.144 124.749C169.824 124.749 169.544 124.799 169.304 124.899C169.064 124.999 168.859 125.134 168.689 125.304C168.529 125.474 168.399 125.674 168.299 125.904C168.199 126.134 168.134 126.379 168.104 126.639H172.109ZM176.732 127.929C176.752 128.219 176.812 128.489 176.912 128.739C177.012 128.989 177.147 129.209 177.317 129.399C177.487 129.579 177.697 129.724 177.947 129.834C178.207 129.944 178.507 129.999 178.847 129.999C179.207 129.999 179.537 129.934 179.837 129.804C180.147 129.674 180.372 129.449 180.512 129.129H182.267C182.167 129.529 182.002 129.874 181.772 130.164C181.552 130.454 181.287 130.694 180.977 130.884C180.677 131.064 180.342 131.199 179.972 131.289C179.612 131.369 179.227 131.409 178.817 131.409C178.187 131.409 177.632 131.314 177.152 131.124C176.682 130.934 176.287 130.659 175.967 130.299C175.647 129.939 175.407 129.514 175.247 129.024C175.097 128.524 175.022 127.964 175.022 127.344C175.022 126.744 175.107 126.199 175.277 125.709C175.447 125.209 175.692 124.779 176.012 124.419C176.342 124.059 176.737 123.779 177.197 123.579C177.657 123.369 178.182 123.264 178.772 123.264C179.392 123.264 179.927 123.369 180.377 123.579C180.827 123.779 181.202 124.054 181.502 124.404C181.812 124.754 182.042 125.164 182.192 125.634C182.342 126.104 182.417 126.614 182.417 127.164C182.417 127.424 182.402 127.679 182.372 127.929H176.732ZM180.752 126.639C180.722 126.019 180.527 125.549 180.167 125.229C179.817 124.909 179.357 124.749 178.787 124.749C178.467 124.749 178.187 124.799 177.947 124.899C177.707 124.999 177.502 125.134 177.332 125.304C177.172 125.474 177.042 125.674 176.942 125.904C176.842 126.134 176.777 126.379 176.747 126.639H180.752ZM188.008 123.399H191.383C191.733 123.399 192.088 123.419 192.448 123.459C192.808 123.489 193.133 123.574 193.423 123.714C193.723 123.854 193.963 124.059 194.143 124.329C194.333 124.589 194.433 124.944 194.443 125.394C194.443 125.744 194.363 126.069 194.203 126.369C194.043 126.669 193.788 126.914 193.438 127.104C193.918 127.234 194.268 127.464 194.488 127.794C194.718 128.114 194.833 128.499 194.833 128.949C194.833 129.369 194.748 129.734 194.578 130.044C194.408 130.344 194.183 130.589 193.903 130.779C193.623 130.959 193.298 131.094 192.928 131.184C192.558 131.264 192.168 131.304 191.758 131.304H188.008V123.399ZM189.733 124.824V126.639H190.768C190.998 126.639 191.233 126.639 191.473 126.639C191.723 126.629 191.943 126.594 192.133 126.534C192.333 126.474 192.493 126.379 192.613 126.249C192.743 126.119 192.808 125.934 192.808 125.694C192.808 125.484 192.758 125.324 192.658 125.214C192.568 125.094 192.453 125.004 192.313 124.944C192.173 124.884 192.013 124.849 191.833 124.839C191.663 124.829 191.503 124.824 191.353 124.824H189.733ZM191.473 129.864C191.673 129.864 191.868 129.854 192.058 129.834C192.258 129.814 192.433 129.769 192.583 129.699C192.743 129.619 192.873 129.519 192.973 129.399C193.073 129.269 193.123 129.099 193.123 128.889C193.123 128.509 193.003 128.254 192.763 128.124C192.533 127.994 192.248 127.929 191.908 127.929H189.733V129.864H191.473ZM198.126 134.379H196.416V123.399H198.036L198.126 124.524C198.416 124.114 198.791 123.804 199.251 123.594C199.721 123.374 200.211 123.264 200.721 123.264C201.261 123.264 201.746 123.364 202.176 123.564C202.606 123.754 202.971 124.024 203.271 124.374C203.581 124.724 203.811 125.149 203.961 125.649C204.121 126.139 204.201 126.699 204.201 127.329C204.201 127.919 204.126 128.464 203.976 128.964C203.826 129.464 203.601 129.899 203.301 130.269C203.011 130.629 202.646 130.909 202.206 131.109C201.776 131.309 201.251 131.409 200.631 131.409C200.151 131.409 199.691 131.334 199.251 131.184C198.821 131.024 198.446 130.764 198.126 130.404V134.379ZM200.361 129.924C200.731 129.924 201.051 129.859 201.321 129.729C201.591 129.589 201.811 129.404 201.981 129.174C202.161 128.944 202.291 128.674 202.371 128.364C202.461 128.054 202.506 127.719 202.506 127.359C202.506 126.999 202.461 126.664 202.371 126.354C202.291 126.034 202.161 125.759 201.981 125.529C201.811 125.299 201.586 125.119 201.306 124.989C201.036 124.859 200.711 124.794 200.331 124.794C199.991 124.794 199.676 124.864 199.386 125.004C199.106 125.144 198.871 125.329 198.681 125.559C198.491 125.789 198.346 126.064 198.246 126.384C198.156 126.694 198.111 127.014 198.111 127.344C198.111 127.704 198.156 128.044 198.246 128.364C198.336 128.674 198.471 128.944 198.651 129.174C198.841 129.394 199.076 129.574 199.356 129.714C199.636 129.854 199.971 129.924 200.361 129.924ZM207.113 127.929C207.133 128.219 207.193 128.489 207.293 128.739C207.393 128.989 207.528 129.209 207.698 129.399C207.868 129.579 208.078 129.724 208.328 129.834C208.588 129.944 208.888 129.999 209.228 129.999C209.588 129.999 209.918 129.934 210.218 129.804C210.528 129.674 210.753 129.449 210.893 129.129H212.648C212.548 129.529 212.383 129.874 212.153 130.164C211.933 130.454 211.668 130.694 211.358 130.884C211.058 131.064 210.723 131.199 210.353 131.289C209.993 131.369 209.608 131.409 209.198 131.409C208.568 131.409 208.013 131.314 207.533 131.124C207.063 130.934 206.668 130.659 206.348 130.299C206.028 129.939 205.788 129.514 205.628 129.024C205.478 128.524 205.403 127.964 205.403 127.344C205.403 126.744 205.488 126.199 205.658 125.709C205.828 125.209 206.073 124.779 206.393 124.419C206.723 124.059 207.118 123.779 207.578 123.579C208.038 123.369 208.563 123.264 209.153 123.264C209.773 123.264 210.308 123.369 210.758 123.579C211.208 123.779 211.583 124.054 211.883 124.404C212.193 124.754 212.423 125.164 212.573 125.634C212.723 126.104 212.798 126.614 212.798 127.164C212.798 127.424 212.783 127.679 212.753 127.929H207.113ZM211.133 126.639C211.103 126.019 210.908 125.549 210.548 125.229C210.198 124.909 209.738 124.749 209.168 124.749C208.848 124.749 208.568 124.799 208.328 124.899C208.088 124.999 207.883 125.134 207.713 125.304C207.553 125.474 207.423 125.674 207.323 125.904C207.223 126.134 207.158 126.379 207.128 126.639H211.133ZM214.345 123.399H216.4L218.785 127.164L221.155 123.399H223.165V131.304H221.485V125.634L218.98 129.534H218.575L216.025 125.634V131.304H214.345V123.399ZM231.519 131.304H229.824V128.604H228.399L226.554 131.304H224.544L226.689 128.334C226.079 128.184 225.614 127.909 225.294 127.509C224.984 127.109 224.829 126.599 224.829 125.979C224.829 125.489 224.909 125.079 225.069 124.749C225.239 124.419 225.469 124.154 225.759 123.954C226.059 123.744 226.399 123.599 226.779 123.519C227.159 123.439 227.569 123.399 228.009 123.399H231.519V131.304ZM229.824 124.824H228.129C227.939 124.824 227.749 124.839 227.559 124.869C227.369 124.889 227.194 124.944 227.034 125.034C226.884 125.114 226.764 125.229 226.674 125.379C226.584 125.529 226.539 125.709 226.539 125.919C226.539 125.949 226.539 125.974 226.539 125.994C226.539 126.254 226.614 126.474 226.764 126.654C226.914 126.834 227.109 126.964 227.349 127.044C227.589 127.114 227.809 127.159 228.009 127.179C228.209 127.189 228.409 127.194 228.609 127.194H229.824V124.824ZM231.933 134.349C232.923 133.129 233.628 131.884 234.048 130.614C234.468 129.334 234.688 128.039 234.708 126.729C234.688 125.409 234.468 124.114 234.048 122.844C233.628 121.574 232.928 120.329 231.948 119.109H233.853C234.283 119.649 234.658 120.229 234.978 120.849C235.298 121.459 235.563 122.094 235.773 122.754C235.993 123.404 236.153 124.069 236.253 124.749C236.363 125.419 236.418 126.079 236.418 126.729C236.418 127.379 236.363 128.044 236.253 128.724C236.143 129.394 235.978 130.059 235.758 130.719C235.548 131.369 235.283 131.999 234.963 132.609C234.643 133.229 234.268 133.809 233.838 134.349H231.933Z" fill="#72798C"/>
<path d="M67.715 122.888L70.145 101.072H93.365V107.876H76.463L75.383 115.76C76.607 115.148 77.759 114.716 78.839 114.464C79.955 114.176 81.233 114.05 82.673 114.086C84.545 114.122 86.237 114.428 87.749 115.004C89.297 115.58 90.611 116.408 91.691 117.488C92.771 118.568 93.599 119.864 94.175 121.376C94.751 122.852 95.039 124.526 95.039 126.398C95.039 128.486 94.679 130.358 93.959 132.014C93.239 133.67 92.249 135.074 90.989 136.226C89.657 137.378 88.145 138.242 86.453 138.818C84.797 139.394 82.889 139.682 80.729 139.682C76.805 139.682 73.673 138.782 71.333 136.982C68.993 135.182 67.607 132.248 67.175 128.18H74.897C75.221 129.728 75.905 130.844 76.949 131.528C78.029 132.212 79.235 132.59 80.567 132.662C82.475 132.734 84.041 132.284 85.265 131.312C86.489 130.34 87.119 128.81 87.155 126.722C87.191 124.67 86.597 123.122 85.373 122.078C84.149 121.034 82.601 120.548 80.729 120.62C79.613 120.656 78.569 120.872 77.597 121.268C76.661 121.664 75.833 122.204 75.113 122.888H67.715Z" fill="#202020"/>
<rect opacity="0.2" width="271" height="146" rx="20" transform="matrix(0.991189 -0.132454 -0.132454 -0.991189 324.338 189.305)" fill="white"/>
<rect x="313.475" y="26.002" width="271" height="146" rx="20" fill="white"/>
<path d="M349.475 74C354.997 74 359.475 69.5228 359.475 64C359.475 58.4772 354.997 54 349.475 54C343.952 54 339.475 58.4772 339.475 64C339.475 69.5228 343.952 74 349.475 74Z" stroke="#9DA7E0" stroke-width="2" stroke-linecap="round" stroke-linejoin="round"/>
<path d="M355.808 70.8571C355.646 70.269 355.317 69.7266 354.849 69.2899C354.16 68.6469 353.226 68.2856 352.251 68.2856H346.741C345.767 68.2856 344.833 68.6469 344.144 69.2899C343.737 69.669 343.436 70.1279 343.257 70.6271" stroke="#9DA7E0" stroke-width="2" stroke-linecap="round" stroke-linejoin="round"/>
<path d="M349.496 64.8569C351.153 64.8569 352.496 63.5138 352.496 61.8569C352.496 60.2001 351.153 58.8569 349.496 58.8569C347.84 58.8569 346.496 60.2001 346.496 61.8569C346.496 63.5138 347.84 64.8569 349.496 64.8569Z" stroke="#9DA7E0" stroke-width="2" stroke-linecap="round" stroke-linejoin="round"/>
<path d="M372.96 63H379.74V56.86H382.06V71H379.74V65.08H372.96V71H370.64V56.86H372.96V63ZM391.747 69.7C391.4 70.1933 390.94 70.56 390.367 70.8C389.794 71.0267 389.154 71.14 388.447 71.14C387.887 71.14 387.374 71.0733 386.907 70.94C386.454 70.8067 386.054 70.6067 385.707 70.34C385.36 70.06 385.087 69.72 384.887 69.32C384.687 68.9067 384.587 68.44 384.587 67.92C384.587 67.3467 384.7 66.86 384.927 66.46C385.154 66.0467 385.46 65.7133 385.847 65.46C386.247 65.2067 386.714 65.02 387.247 64.9C387.78 64.7667 388.34 64.7 388.927 64.7H391.627C391.627 63.9267 391.454 63.3267 391.107 62.9C390.76 62.4733 390.154 62.2533 389.287 62.24C388.78 62.24 388.34 62.3267 387.967 62.5C387.607 62.6733 387.367 62.96 387.247 63.36H384.907C384.987 62.8 385.167 62.3267 385.447 61.94C385.74 61.5533 386.087 61.2333 386.487 60.98C386.9 60.7267 387.354 60.5467 387.847 60.44C388.354 60.3333 388.86 60.28 389.367 60.28C390.02 60.28 390.627 60.3667 391.187 60.54C391.747 60.7133 392.234 61.0067 392.647 61.42C393.114 61.9 393.427 62.4733 393.587 63.14C393.747 63.8067 393.827 64.5333 393.827 65.32V71H391.847L391.747 69.7ZM391.627 66.32H389.427C389.04 66.32 388.654 66.3533 388.267 66.42C387.88 66.4733 387.547 66.6133 387.267 66.84C387 67.0533 386.867 67.3667 386.867 67.78C386.867 68.2867 387.047 68.6733 387.407 68.94C387.78 69.1933 388.234 69.32 388.767 69.32C389.18 69.32 389.56 69.2667 389.907 69.16C390.267 69.0533 390.574 68.88 390.827 68.64C391.08 68.3867 391.274 68.0733 391.407 67.7C391.554 67.3133 391.627 66.8533 391.627 66.32ZM402.646 65.98C402.712 65.0733 402.752 64.1733 402.766 63.28C402.792 62.3733 402.819 61.4333 402.846 60.46H410.726V71H408.426V62.44H404.966C404.939 63.0933 404.912 63.7467 404.886 64.4C404.872 65.04 404.846 65.68 404.806 66.32C404.792 66.56 404.766 66.8467 404.726 67.18C404.699 67.5 404.659 67.8267 404.606 68.16C404.552 68.48 404.472 68.7867 404.366 69.08C404.259 69.36 404.126 69.62 403.966 69.86C403.686 70.26 403.312 70.5533 402.846 70.74C402.392 70.9133 401.866 71 401.266 71H400.706V69.04C401.106 69.04 401.426 68.9467 401.666 68.76C401.919 68.56 402.106 68.3133 402.226 68.02C402.359 67.7133 402.452 67.3867 402.506 67.04C402.572 66.68 402.619 66.3267 402.646 65.98ZM415.329 71H413.209V60.46H415.489V67.7L420.849 60.46H422.909V71H420.629V63.9C420.615 63.9267 418.849 66.2933 415.329 71ZM425.396 71V60.46H427.676V64.8H432.356V60.46H434.636V71H432.356V66.78H427.676V71H425.396ZM439.235 71H437.115V60.46H439.395V67.7L444.755 60.46H446.815V71H444.535V63.9C444.522 63.9267 442.755 66.2933 439.235 71ZM451.423 71H449.303V60.46H451.583V67.7L456.943 60.46H459.003V71H456.723V63.9C456.709 63.9267 454.943 66.2933 451.423 71ZM466.881 60.46H471.381C471.847 60.46 472.321 60.4867 472.801 60.54C473.281 60.58 473.714 60.6933 474.101 60.88C474.501 61.0667 474.821 61.34 475.061 61.7C475.314 62.0467 475.447 62.52 475.461 63.12C475.461 63.5867 475.354 64.02 475.141 64.42C474.927 64.82 474.587 65.1467 474.121 65.4C474.761 65.5733 475.227 65.88 475.521 66.32C475.827 66.7467 475.981 67.26 475.981 67.86C475.981 68.42 475.867 68.9067 475.641 69.32C475.414 69.72 475.114 70.0467 474.741 70.3C474.367 70.54 473.934 70.72 473.441 70.84C472.947 70.9467 472.427 71 471.881 71H466.881V60.46ZM469.181 62.36V64.78H470.561C470.867 64.78 471.181 64.78 471.501 64.78C471.834 64.7667 472.127 64.72 472.381 64.64C472.647 64.56 472.861 64.4333 473.021 64.26C473.194 64.0867 473.281 63.84 473.281 63.52C473.281 63.24 473.214 63.0267 473.081 62.88C472.961 62.72 472.807 62.6 472.621 62.52C472.434 62.44 472.221 62.3933 471.981 62.38C471.754 62.3667 471.541 62.36 471.341 62.36H469.181ZM471.501 69.08C471.767 69.08 472.027 69.0667 472.281 69.04C472.547 69.0133 472.781 68.9533 472.981 68.86C473.194 68.7533 473.367 68.62 473.501 68.46C473.634 68.2867 473.701 68.06 473.701 67.78C473.701 67.2733 473.541 66.9333 473.221 66.76C472.914 66.5867 472.534 66.5 472.081 66.5H469.181V69.08H471.501ZM482.732 71.14C481.892 71.14 481.152 71.0133 480.512 70.76C479.885 70.4933 479.358 70.1267 478.932 69.66C478.518 69.18 478.205 68.6133 477.992 67.96C477.792 67.2933 477.692 66.56 477.692 65.76C477.692 64.96 477.798 64.2267 478.012 63.56C478.238 62.8933 478.572 62.32 479.012 61.84C479.452 61.36 479.985 60.98 480.612 60.7C481.238 60.42 481.965 60.28 482.792 60.28C483.378 60.28 483.918 60.3467 484.412 60.48C484.918 60.6 485.365 60.8067 485.752 61.1C486.138 61.38 486.472 61.74 486.752 62.18C487.032 62.6067 487.225 63.1267 487.332 63.74H484.972C484.852 63.2867 484.592 62.94 484.192 62.7C483.805 62.4467 483.325 62.32 482.752 62.32C482.245 62.32 481.812 62.4133 481.452 62.6C481.092 62.7867 480.798 63.04 480.572 63.36C480.345 63.68 480.178 64.0533 480.072 64.48C479.978 64.8933 479.932 65.3267 479.932 65.78C479.932 66.2467 479.985 66.6867 480.092 67.1C480.198 67.5133 480.365 67.8733 480.592 68.18C480.832 68.4733 481.132 68.7133 481.492 68.9C481.852 69.0733 482.285 69.16 482.792 69.16C483.392 69.16 483.885 69.0267 484.272 68.76C484.672 68.4933 484.925 68.14 485.032 67.7H487.372C487.265 68.3 487.065 68.82 486.772 69.26C486.492 69.7 486.145 70.06 485.732 70.34C485.318 70.62 484.858 70.8267 484.352 70.96C483.845 71.08 483.305 71.14 482.732 71.14ZM491.202 66.5C491.229 66.8867 491.309 67.2467 491.442 67.58C491.575 67.9133 491.755 68.2067 491.982 68.46C492.209 68.7 492.489 68.8933 492.822 69.04C493.169 69.1867 493.569 69.26 494.022 69.26C494.502 69.26 494.942 69.1733 495.342 69C495.755 68.8267 496.055 68.5267 496.242 68.1H498.582C498.449 68.6333 498.229 69.0933 497.922 69.48C497.629 69.8667 497.275 70.1867 496.862 70.44C496.462 70.68 496.015 70.86 495.522 70.98C495.042 71.0867 494.529 71.14 493.982 71.14C493.142 71.14 492.402 71.0133 491.762 70.76C491.135 70.5067 490.609 70.14 490.182 69.66C489.755 69.18 489.435 68.6133 489.222 67.96C489.022 67.2933 488.922 66.5467 488.922 65.72C488.922 64.92 489.035 64.1933 489.262 63.54C489.489 62.8733 489.815 62.3 490.242 61.82C490.682 61.34 491.209 60.9667 491.822 60.7C492.435 60.42 493.135 60.28 493.922 60.28C494.749 60.28 495.462 60.42 496.062 60.7C496.662 60.9667 497.162 61.3333 497.562 61.8C497.975 62.2667 498.282 62.8133 498.482 63.44C498.682 64.0667 498.782 64.7467 498.782 65.48C498.782 65.8267 498.762 66.1667 498.722 66.5H491.202ZM496.562 64.78C496.522 63.9533 496.262 63.3267 495.782 62.9C495.315 62.4733 494.702 62.26 493.942 62.26C493.515 62.26 493.142 62.3267 492.822 62.46C492.502 62.5933 492.229 62.7733 492.002 63C491.789 63.2267 491.615 63.4933 491.482 63.8C491.349 64.1067 491.262 64.4333 491.222 64.78H496.562ZM500.845 71V60.46H508.465V62.44H503.125V71H500.845ZM510.403 64.22C510.443 63.58 510.47 62.96 510.483 62.36C510.497 61.7467 510.503 61.1133 510.503 60.46H518.623V69.06H520.003V74.08H517.783V71H510.583V74.08H508.363V69.06C508.75 69.06 509.07 68.94 509.323 68.7C509.59 68.4467 509.77 68.1667 509.863 67.86C509.957 67.6467 510.037 67.36 510.103 67C510.17 66.6267 510.223 66.26 510.263 65.9C510.303 65.54 510.337 65.2067 510.363 64.9C510.39 64.5933 510.403 64.3667 510.403 64.22ZM516.343 62.44H512.583C512.557 62.92 512.537 63.44 512.523 64C512.51 64.56 512.49 65.1 512.463 65.62C512.437 65.8733 512.41 66.1467 512.383 66.44C512.37 66.7333 512.337 67.0333 512.283 67.34C512.23 67.6333 512.157 67.9267 512.063 68.22C511.97 68.5133 511.843 68.7933 511.683 69.06H516.343V62.44ZM528.388 69.7C528.041 70.1933 527.581 70.56 527.008 70.8C526.434 71.0267 525.794 71.14 525.088 71.14C524.528 71.14 524.014 71.0733 523.548 70.94C523.094 70.8067 522.694 70.6067 522.348 70.34C522.001 70.06 521.728 69.72 521.528 69.32C521.328 68.9067 521.228 68.44 521.228 67.92C521.228 67.3467 521.341 66.86 521.568 66.46C521.794 66.0467 522.101 65.7133 522.488 65.46C522.888 65.2067 523.354 65.02 523.888 64.9C524.421 64.7667 524.981 64.7 525.568 64.7H528.268C528.268 63.9267 528.094 63.3267 527.748 62.9C527.401 62.4733 526.794 62.2533 525.928 62.24C525.421 62.24 524.981 62.3267 524.608 62.5C524.248 62.6733 524.008 62.96 523.888 63.36H521.548C521.628 62.8 521.808 62.3267 522.088 61.94C522.381 61.5533 522.728 61.2333 523.128 60.98C523.541 60.7267 523.994 60.5467 524.488 60.44C524.994 60.3333 525.501 60.28 526.008 60.28C526.661 60.28 527.268 60.3667 527.828 60.54C528.388 60.7133 528.874 61.0067 529.288 61.42C529.754 61.9 530.068 62.4733 530.228 63.14C530.388 63.8067 530.468 64.5333 530.468 65.32V71H528.488L528.388 69.7ZM528.268 66.32H526.068C525.681 66.32 525.294 66.3533 524.908 66.42C524.521 66.4733 524.188 66.6133 523.908 66.84C523.641 67.0533 523.508 67.3667 523.508 67.78C523.508 68.2867 523.688 68.6733 524.048 68.94C524.421 69.1933 524.874 69.32 525.408 69.32C525.821 69.32 526.201 69.2667 526.548 69.16C526.908 69.0533 527.214 68.88 527.468 68.64C527.721 68.3867 527.914 68.0733 528.048 67.7C528.194 67.3133 528.268 66.8533 528.268 66.32ZM370.24 93V82.46H372.52V86.8H377.2V82.46H379.48V93H377.2V88.78H372.52V93H370.24ZM383.839 88.5C383.865 88.8867 383.945 89.2467 384.079 89.58C384.212 89.9133 384.392 90.2067 384.619 90.46C384.845 90.7 385.125 90.8933 385.459 91.04C385.805 91.1867 386.205 91.26 386.659 91.26C387.139 91.26 387.579 91.1733 387.979 91C388.392 90.8267 388.692 90.5267 388.879 90.1H391.219C391.085 90.6333 390.865 91.0933 390.559 91.48C390.265 91.8667 389.912 92.1867 389.499 92.44C389.099 92.68 388.652 92.86 388.159 92.98C387.679 93.0867 387.165 93.14 386.619 93.14C385.779 93.14 385.039 93.0133 384.399 92.76C383.772 92.5067 383.245 92.14 382.819 91.66C382.392 91.18 382.072 90.6133 381.859 89.96C381.659 89.2933 381.559 88.5467 381.559 87.72C381.559 86.92 381.672 86.1933 381.899 85.54C382.125 84.8733 382.452 84.3 382.879 83.82C383.319 83.34 383.845 82.9667 384.459 82.7C385.072 82.42 385.772 82.28 386.559 82.28C387.385 82.28 388.099 82.42 388.699 82.7C389.299 82.9667 389.799 83.3333 390.199 83.8C390.612 84.2667 390.919 84.8133 391.119 85.44C391.319 86.0667 391.419 86.7467 391.419 87.48C391.419 87.8267 391.399 88.1667 391.359 88.5H383.839ZM389.199 86.78C389.159 85.9533 388.899 85.3267 388.419 84.9C387.952 84.4733 387.339 84.26 386.579 84.26C386.152 84.26 385.779 84.3267 385.459 84.46C385.139 84.5933 384.865 84.7733 384.639 85C384.425 85.2267 384.252 85.4933 384.119 85.8C383.985 86.1067 383.899 86.4333 383.859 86.78H389.199ZM398.873 82.46H401.613L404.793 87.48L407.953 82.46H410.633V93H408.393V85.44L405.053 90.64H404.513L401.113 85.44V93H398.873V82.46ZM415.011 88.5C415.037 88.8867 415.117 89.2467 415.251 89.58C415.384 89.9133 415.564 90.2067 415.791 90.46C416.017 90.7 416.297 90.8933 416.631 91.04C416.977 91.1867 417.377 91.26 417.831 91.26C418.311 91.26 418.751 91.1733 419.151 91C419.564 90.8267 419.864 90.5267 420.051 90.1H422.391C422.257 90.6333 422.037 91.0933 421.731 91.48C421.437 91.8667 421.084 92.1867 420.671 92.44C420.271 92.68 419.824 92.86 419.331 92.98C418.851 93.0867 418.337 93.14 417.791 93.14C416.951 93.14 416.211 93.0133 415.571 92.76C414.944 92.5067 414.417 92.14 413.991 91.66C413.564 91.18 413.244 90.6133 413.031 89.96C412.831 89.2933 412.731 88.5467 412.731 87.72C412.731 86.92 412.844 86.1933 413.071 85.54C413.297 84.8733 413.624 84.3 414.051 83.82C414.491 83.34 415.017 82.9667 415.631 82.7C416.244 82.42 416.944 82.28 417.731 82.28C418.557 82.28 419.271 82.42 419.871 82.7C420.471 82.9667 420.971 83.3333 421.371 83.8C421.784 84.2667 422.091 84.8133 422.291 85.44C422.491 86.0667 422.591 86.7467 422.591 87.48C422.591 87.8267 422.571 88.1667 422.531 88.5H415.011ZM420.371 86.78C420.331 85.9533 420.071 85.3267 419.591 84.9C419.124 84.4733 418.511 84.26 417.751 84.26C417.324 84.26 416.951 84.3267 416.631 84.46C416.311 84.5933 416.037 84.7733 415.811 85C415.597 85.2267 415.424 85.4933 415.291 85.8C415.157 86.1067 415.071 86.4333 415.031 86.78H420.371ZM424.654 93V82.46H426.934V86.8H431.614V82.46H433.894V93H431.614V88.78H426.934V93H424.654ZM438.253 88.5C438.279 88.8867 438.359 89.2467 438.493 89.58C438.626 89.9133 438.806 90.2067 439.033 90.46C439.259 90.7 439.539 90.8933 439.873 91.04C440.219 91.1867 440.619 91.26 441.073 91.26C441.553 91.26 441.993 91.1733 442.393 91C442.806 90.8267 443.106 90.5267 443.293 90.1H445.633C445.499 90.6333 445.279 91.0933 444.973 91.48C444.679 91.8667 444.326 92.1867 443.913 92.44C443.513 92.68 443.066 92.86 442.573 92.98C442.093 93.0867 441.579 93.14 441.033 93.14C440.193 93.14 439.453 93.0133 438.813 92.76C438.186 92.5067 437.659 92.14 437.233 91.66C436.806 91.18 436.486 90.6133 436.273 89.96C436.073 89.2933 435.973 88.5467 435.973 87.72C435.973 86.92 436.086 86.1933 436.313 85.54C436.539 84.8733 436.866 84.3 437.293 83.82C437.733 83.34 438.259 82.9667 438.873 82.7C439.486 82.42 440.186 82.28 440.973 82.28C441.799 82.28 442.513 82.42 443.113 82.7C443.713 82.9667 444.213 83.3333 444.613 83.8C445.026 84.2667 445.333 84.8133 445.533 85.44C445.733 86.0667 445.833 86.7467 445.833 87.48C445.833 87.8267 445.813 88.1667 445.773 88.5H438.253ZM443.613 86.78C443.573 85.9533 443.313 85.3267 442.833 84.9C442.366 84.4733 441.753 84.26 440.993 84.26C440.566 84.26 440.193 84.3267 439.873 84.46C439.553 84.5933 439.279 84.7733 439.053 85C438.839 85.2267 438.666 85.4933 438.533 85.8C438.399 86.1067 438.313 86.4333 438.273 86.78H443.613ZM449.776 88.5C449.803 88.8867 449.883 89.2467 450.016 89.58C450.15 89.9133 450.33 90.2067 450.556 90.46C450.783 90.7 451.063 90.8933 451.396 91.04C451.743 91.1867 452.143 91.26 452.596 91.26C453.076 91.26 453.516 91.1733 453.916 91C454.33 90.8267 454.63 90.5267 454.816 90.1H457.156C457.023 90.6333 456.803 91.0933 456.496 91.48C456.203 91.8667 455.85 92.1867 455.436 92.44C455.036 92.68 454.59 92.86 454.096 92.98C453.616 93.0867 453.103 93.14 452.556 93.14C451.716 93.14 450.976 93.0133 450.336 92.76C449.71 92.5067 449.183 92.14 448.756 91.66C448.33 91.18 448.01 90.6133 447.796 89.96C447.596 89.2933 447.496 88.5467 447.496 87.72C447.496 86.92 447.61 86.1933 447.836 85.54C448.063 84.8733 448.39 84.3 448.816 83.82C449.256 83.34 449.783 82.9667 450.396 82.7C451.01 82.42 451.71 82.28 452.496 82.28C453.323 82.28 454.036 82.42 454.636 82.7C455.236 82.9667 455.736 83.3333 456.136 83.8C456.55 84.2667 456.856 84.8133 457.056 85.44C457.256 86.0667 457.356 86.7467 457.356 87.48C457.356 87.8267 457.336 88.1667 457.296 88.5H449.776ZM455.136 86.78C455.096 85.9533 454.836 85.3267 454.356 84.9C453.89 84.4733 453.276 84.26 452.516 84.26C452.09 84.26 451.716 84.3267 451.396 84.46C451.076 84.5933 450.803 84.7733 450.576 85C450.363 85.2267 450.19 85.4933 450.056 85.8C449.923 86.1067 449.836 86.4333 449.796 86.78H455.136Z" fill="#202020"/>
<path d="M413.41 122.105C412.78 122.105 412.225 122.01 411.745 121.82C411.275 121.62 410.88 121.345 410.56 120.995C410.25 120.635 410.015 120.21 409.855 119.72C409.705 119.22 409.63 118.67 409.63 118.07C409.63 117.47 409.71 116.92 409.87 116.42C410.04 115.92 410.29 115.49 410.62 115.13C410.95 114.77 411.35 114.485 411.82 114.275C412.29 114.065 412.835 113.96 413.455 113.96C413.895 113.96 414.3 114.01 414.67 114.11C415.05 114.2 415.385 114.355 415.675 114.575C415.965 114.785 416.215 115.055 416.425 115.385C416.635 115.705 416.78 116.095 416.86 116.555H415.09C415 116.215 414.805 115.955 414.505 115.775C414.215 115.585 413.855 115.49 413.425 115.49C413.045 115.49 412.72 115.56 412.45 115.7C412.18 115.84 411.96 116.03 411.79 116.27C411.62 116.51 411.495 116.79 411.415 117.11C411.345 117.42 411.31 117.745 411.31 118.085C411.31 118.435 411.35 118.765 411.43 119.075C411.51 119.385 411.635 119.655 411.805 119.885C411.985 120.105 412.21 120.285 412.48 120.425C412.75 120.555 413.075 120.62 413.455 120.62C413.905 120.62 414.275 120.52 414.565 120.32C414.865 120.12 415.055 119.855 415.135 119.525H416.89C416.81 119.975 416.66 120.365 416.44 120.695C416.23 121.025 415.97 121.295 415.66 121.505C415.35 121.715 415.005 121.87 414.625 121.97C414.245 122.06 413.84 122.105 413.41 122.105ZM421.908 113.96C422.538 113.96 423.093 114.06 423.573 114.26C424.053 114.46 424.458 114.74 424.788 115.1C425.128 115.45 425.383 115.875 425.553 116.375C425.723 116.875 425.808 117.43 425.808 118.04C425.808 118.66 425.723 119.22 425.553 119.72C425.393 120.21 425.148 120.635 424.818 120.995C424.488 121.355 424.078 121.63 423.588 121.82C423.108 122.01 422.548 122.105 421.908 122.105C421.278 122.105 420.723 122.01 420.243 121.82C419.763 121.62 419.358 121.345 419.028 120.995C418.708 120.635 418.463 120.205 418.293 119.705C418.133 119.205 418.053 118.65 418.053 118.04C418.053 117.43 418.133 116.875 418.293 116.375C418.463 115.875 418.713 115.45 419.043 115.1C419.373 114.74 419.778 114.46 420.258 114.26C420.738 114.06 421.288 113.96 421.908 113.96ZM421.908 120.62C422.298 120.62 422.628 120.555 422.898 120.425C423.178 120.285 423.403 120.1 423.573 119.87C423.753 119.64 423.883 119.37 423.963 119.06C424.053 118.75 424.098 118.415 424.098 118.055C424.098 117.695 424.053 117.36 423.963 117.05C423.883 116.73 423.753 116.455 423.573 116.225C423.403 115.995 423.178 115.815 422.898 115.685C422.628 115.555 422.298 115.49 421.908 115.49C421.528 115.49 421.198 115.555 420.918 115.685C420.648 115.815 420.423 115.995 420.243 116.225C420.073 116.455 419.943 116.73 419.853 117.05C419.773 117.36 419.733 117.695 419.733 118.055C419.733 118.415 419.773 118.75 419.853 119.06C419.943 119.37 420.073 119.64 420.243 119.87C420.423 120.1 420.648 120.285 420.918 120.425C421.198 120.555 421.528 120.62 421.908 120.62ZM433.527 114.095V115.58H430.857V122H429.162V115.58H426.492V114.095H433.527ZM436.22 125.075H434.51V114.095H436.13L436.22 115.22C436.51 114.81 436.885 114.5 437.345 114.29C437.815 114.07 438.305 113.96 438.815 113.96C439.355 113.96 439.84 114.06 440.27 114.26C440.7 114.45 441.065 114.72 441.365 115.07C441.675 115.42 441.905 115.845 442.055 116.345C442.215 116.835 442.295 117.395 442.295 118.025C442.295 118.615 442.22 119.16 442.07 119.66C441.92 120.16 441.695 120.595 441.395 120.965C441.105 121.325 440.74 121.605 440.3 121.805C439.87 122.005 439.345 122.105 438.725 122.105C438.245 122.105 437.785 122.03 437.345 121.88C436.915 121.72 436.54 121.46 436.22 121.1V125.075ZM438.455 120.62C438.825 120.62 439.145 120.555 439.415 120.425C439.685 120.285 439.905 120.1 440.075 119.87C440.255 119.64 440.385 119.37 440.465 119.06C440.555 118.75 440.6 118.415 440.6 118.055C440.6 117.695 440.555 117.36 440.465 117.05C440.385 116.73 440.255 116.455 440.075 116.225C439.905 115.995 439.68 115.815 439.4 115.685C439.13 115.555 438.805 115.49 438.425 115.49C438.085 115.49 437.77 115.56 437.48 115.7C437.2 115.84 436.965 116.025 436.775 116.255C436.585 116.485 436.44 116.76 436.34 117.08C436.25 117.39 436.205 117.71 436.205 118.04C436.205 118.4 436.25 118.74 436.34 119.06C436.43 119.37 436.565 119.64 436.745 119.87C436.935 120.09 437.17 120.27 437.45 120.41C437.73 120.55 438.065 120.62 438.455 120.62ZM449.467 114.095H451.342L449.062 120.74C448.772 121.56 448.507 122.285 448.267 122.915C448.037 123.545 447.762 124.07 447.442 124.49C447.122 124.91 446.727 125.225 446.257 125.435C445.797 125.655 445.192 125.765 444.442 125.765H444.187V124.235C444.227 124.235 444.267 124.235 444.307 124.235C444.607 124.235 444.872 124.2 445.102 124.13C445.342 124.06 445.557 123.955 445.747 123.815C445.937 123.675 446.102 123.49 446.242 123.26C446.382 123.04 446.512 122.785 446.632 122.495L443.047 114.095H445.057L447.517 120.35L449.467 114.095ZM453.236 116.915C453.266 116.435 453.286 115.97 453.296 115.52C453.306 115.06 453.311 114.585 453.311 114.095H459.401V120.545H460.436V124.31H458.771V122H453.371V124.31H451.706V120.545C451.996 120.545 452.236 120.455 452.426 120.275C452.626 120.085 452.761 119.875 452.831 119.645C452.901 119.485 452.961 119.27 453.011 119C453.061 118.72 453.101 118.445 453.131 118.175C453.161 117.905 453.186 117.655 453.206 117.425C453.226 117.195 453.236 117.025 453.236 116.915ZM457.691 115.58H454.871C454.851 115.94 454.836 116.33 454.826 116.75C454.816 117.17 454.801 117.575 454.781 117.965C454.761 118.155 454.741 118.36 454.721 118.58C454.711 118.8 454.686 119.025 454.646 119.255C454.606 119.475 454.551 119.695 454.481 119.915C454.411 120.135 454.316 120.345 454.196 120.545H457.691V115.58ZM461.624 122V114.095H463.334V117.35H466.844V114.095H468.554V122H466.844V118.835H463.334V122H461.624ZM472.003 122H470.413V114.095H472.123V119.525L476.143 114.095H477.688V122H475.978V116.675C475.968 116.695 474.643 118.47 472.003 122ZM479.554 122V114.095H481.249V117.32H482.464L484.489 114.095H486.439L483.934 117.86L486.634 122H484.654L482.569 118.805H481.249V122H479.554ZM492.55 121.025C492.29 121.395 491.945 121.67 491.515 121.85C491.085 122.02 490.605 122.105 490.075 122.105C489.655 122.105 489.27 122.055 488.92 121.955C488.58 121.855 488.28 121.705 488.02 121.505C487.76 121.295 487.555 121.04 487.405 120.74C487.255 120.43 487.18 120.08 487.18 119.69C487.18 119.26 487.265 118.895 487.435 118.595C487.605 118.285 487.835 118.035 488.125 117.845C488.425 117.655 488.775 117.515 489.175 117.425C489.575 117.325 489.995 117.275 490.435 117.275H492.46C492.46 116.695 492.33 116.245 492.07 115.925C491.81 115.605 491.355 115.44 490.705 115.43C490.325 115.43 489.995 115.495 489.715 115.625C489.445 115.755 489.265 115.97 489.175 116.27H487.42C487.48 115.85 487.615 115.495 487.825 115.205C488.045 114.915 488.305 114.675 488.605 114.485C488.915 114.295 489.255 114.16 489.625 114.08C490.005 114 490.385 113.96 490.765 113.96C491.255 113.96 491.71 114.025 492.13 114.155C492.55 114.285 492.915 114.505 493.225 114.815C493.575 115.175 493.81 115.605 493.93 116.105C494.05 116.605 494.11 117.15 494.11 117.74V122H492.625L492.55 121.025ZM492.46 118.49H490.81C490.52 118.49 490.23 118.515 489.94 118.565C489.65 118.605 489.4 118.71 489.19 118.88C488.99 119.04 488.89 119.275 488.89 119.585C488.89 119.965 489.025 120.255 489.295 120.455C489.575 120.645 489.915 120.74 490.315 120.74C490.625 120.74 490.91 120.7 491.17 120.62C491.44 120.54 491.67 120.41 491.86 120.23C492.05 120.04 492.195 119.805 492.295 119.525C492.405 119.235 492.46 118.89 492.46 118.49ZM413.485 131.96C414.115 131.96 414.67 132.06 415.15 132.26C415.63 132.46 416.035 132.74 416.365 133.1C416.705 133.45 416.96 133.875 417.13 134.375C417.3 134.875 417.385 135.43 417.385 136.04C417.385 136.66 417.3 137.22 417.13 137.72C416.97 138.21 416.725 138.635 416.395 138.995C416.065 139.355 415.655 139.63 415.165 139.82C414.685 140.01 414.125 140.105 413.485 140.105C412.855 140.105 412.3 140.01 411.82 139.82C411.34 139.62 410.935 139.345 410.605 138.995C410.285 138.635 410.04 138.205 409.87 137.705C409.71 137.205 409.63 136.65 409.63 136.04C409.63 135.43 409.71 134.875 409.87 134.375C410.04 133.875 410.29 133.45 410.62 133.1C410.95 132.74 411.355 132.46 411.835 132.26C412.315 132.06 412.865 131.96 413.485 131.96ZM413.485 138.62C413.875 138.62 414.205 138.555 414.475 138.425C414.755 138.285 414.98 138.1 415.15 137.87C415.33 137.64 415.46 137.37 415.54 137.06C415.63 136.75 415.675 136.415 415.675 136.055C415.675 135.695 415.63 135.36 415.54 135.05C415.46 134.73 415.33 134.455 415.15 134.225C414.98 133.995 414.755 133.815 414.475 133.685C414.205 133.555 413.875 133.49 413.485 133.49C413.105 133.49 412.775 133.555 412.495 133.685C412.225 133.815 412 133.995 411.82 134.225C411.65 134.455 411.52 134.73 411.43 135.05C411.35 135.36 411.31 135.695 411.31 136.055C411.31 136.415 411.35 136.75 411.43 137.06C411.52 137.37 411.65 137.64 411.82 137.87C412 138.1 412.225 138.285 412.495 138.425C412.775 138.555 413.105 138.62 413.485 138.62ZM418.939 140V132.095H420.649V135.35H424.159V132.095H425.869V140H424.159V136.835H420.649V140H418.939ZM428.463 136.235C428.513 135.555 428.543 134.88 428.553 134.21C428.573 133.53 428.593 132.825 428.613 132.095H434.523V140H432.798V133.58H430.203C430.183 134.07 430.163 134.56 430.143 135.05C430.133 135.53 430.113 136.01 430.083 136.49C430.073 136.67 430.053 136.885 430.023 137.135C430.003 137.375 429.973 137.62 429.933 137.87C429.893 138.11 429.833 138.34 429.753 138.56C429.673 138.77 429.573 138.965 429.453 139.145C429.243 139.445 428.963 139.665 428.613 139.805C428.273 139.935 427.878 140 427.428 140H427.008V138.53C427.308 138.53 427.548 138.46 427.728 138.32C427.918 138.17 428.058 137.985 428.148 137.765C428.248 137.535 428.318 137.29 428.358 137.03C428.408 136.76 428.443 136.495 428.463 136.235ZM441.485 139.025C441.225 139.395 440.88 139.67 440.45 139.85C440.02 140.02 439.54 140.105 439.01 140.105C438.59 140.105 438.205 140.055 437.855 139.955C437.515 139.855 437.215 139.705 436.955 139.505C436.695 139.295 436.49 139.04 436.34 138.74C436.19 138.43 436.115 138.08 436.115 137.69C436.115 137.26 436.2 136.895 436.37 136.595C436.54 136.285 436.77 136.035 437.06 135.845C437.36 135.655 437.71 135.515 438.11 135.425C438.51 135.325 438.93 135.275 439.37 135.275H441.395C441.395 134.695 441.265 134.245 441.005 133.925C440.745 133.605 440.29 133.44 439.64 133.43C439.26 133.43 438.93 133.495 438.65 133.625C438.38 133.755 438.2 133.97 438.11 134.27H436.355C436.415 133.85 436.55 133.495 436.76 133.205C436.98 132.915 437.24 132.675 437.54 132.485C437.85 132.295 438.19 132.16 438.56 132.08C438.94 132 439.32 131.96 439.7 131.96C440.19 131.96 440.645 132.025 441.065 132.155C441.485 132.285 441.85 132.505 442.16 132.815C442.51 133.175 442.745 133.605 442.865 134.105C442.985 134.605 443.045 135.15 443.045 135.74V140H441.56L441.485 139.025ZM441.395 136.49H439.745C439.455 136.49 439.165 136.515 438.875 136.565C438.585 136.605 438.335 136.71 438.125 136.88C437.925 137.04 437.825 137.275 437.825 137.585C437.825 137.965 437.96 138.255 438.23 138.455C438.51 138.645 438.85 138.74 439.25 138.74C439.56 138.74 439.845 138.7 440.105 138.62C440.375 138.54 440.605 138.41 440.795 138.23C440.985 138.04 441.13 137.805 441.23 137.525C441.34 137.235 441.395 136.89 441.395 136.49ZM448.646 129.98C448.996 129.98 449.286 129.9 449.516 129.74C449.746 129.58 449.876 129.325 449.906 128.975H451.406C451.336 129.755 451.056 130.325 450.566 130.685C450.086 131.045 449.446 131.225 448.646 131.225C447.826 131.225 447.171 131.045 446.681 130.685C446.201 130.325 445.931 129.755 445.871 128.975H447.371C447.411 129.325 447.541 129.58 447.761 129.74C447.991 129.9 448.286 129.98 448.646 129.98ZM446.471 140H444.881V132.095H446.591V137.525L450.611 132.095H452.156V140H450.446V134.69C450.436 134.71 449.111 136.48 446.471 140ZM454.022 140V132.095H455.732V135.35H459.242V132.095H460.952V140H459.242V136.835H455.732V140H454.022Z" fill="#72798C"/>
<path d="M371.689 120.568C371.869 118.624 372.319 116.968 373.039 115.6C373.759 114.232 374.713 113.062 375.901 112.09C377.125 111.118 378.529 110.416 380.113 109.984C381.733 109.516 383.551 109.282 385.567 109.282C387.187 109.282 388.717 109.462 390.157 109.822C391.633 110.146 392.965 110.704 394.153 111.496C395.377 112.288 396.349 113.332 397.069 114.628C397.825 115.924 398.203 117.508 398.203 119.38C398.203 120.964 397.807 122.476 397.015 123.916C396.223 125.356 395.071 126.49 393.559 127.318C395.755 128.038 397.339 129.244 398.311 130.936C399.283 132.628 399.733 134.608 399.661 136.876C399.589 138.964 399.139 140.728 398.311 142.168C397.483 143.608 396.421 144.796 395.125 145.732C393.829 146.632 392.335 147.298 390.643 147.73C388.951 148.162 387.187 148.378 385.351 148.378C381.283 148.378 377.953 147.46 375.361 145.624C372.769 143.788 371.185 140.872 370.609 136.876H378.331C378.583 137.776 378.943 138.514 379.411 139.09C379.915 139.666 380.473 140.134 381.085 140.494C381.733 140.818 382.417 141.052 383.137 141.196C383.857 141.304 384.595 141.358 385.351 141.358C386.215 141.358 387.043 141.268 387.835 141.088C388.627 140.908 389.329 140.62 389.941 140.224C390.553 139.828 391.039 139.306 391.399 138.658C391.759 137.974 391.939 137.146 391.939 136.174C391.939 135.454 391.777 134.788 391.453 134.176C391.165 133.564 390.769 133.114 390.265 132.826C389.617 132.394 388.897 132.124 388.105 132.016C387.349 131.872 386.557 131.8 385.729 131.8H381.895V125.428H384.487C385.423 125.428 386.269 125.32 387.025 125.104C387.781 124.852 388.465 124.474 389.077 123.97C389.509 123.574 389.869 123.124 390.157 122.62C390.445 122.08 390.589 121.45 390.589 120.73C390.589 119.866 390.445 119.146 390.157 118.57C389.869 117.958 389.473 117.49 388.969 117.166C388.465 116.806 387.871 116.554 387.187 116.41C386.503 116.266 385.783 116.194 385.027 116.194C383.659 116.194 382.453 116.554 381.409 117.274C380.365 117.958 379.681 119.056 379.357 120.568H371.689Z" fill="#202020"/>
</svg>
