<svg width="460" height="418" viewBox="0 0 460 418" fill="none" xmlns="http://www.w3.org/2000/svg">
<rect x="201" y="195" width="38" height="38" fill="#0862EE"/>
<path d="M208.733 203V203.733L229.267 224.267L229.267 225" stroke="white" stroke-width="6" stroke-linecap="square"/>
<path d="M230.267 197L230.267 197.733L209.733 218.267L209.733 219" stroke="white" stroke-width="6" stroke-linecap="square"/>
<g filter="url(#filter0_d_4632_1355)">
<rect x="355.853" y="119" width="120" height="120" rx="10" transform="rotate(45 355.853 119)" fill="#325488"/>
</g>
<rect x="207.892" y="250.891" width="120" height="120" rx="10" transform="rotate(30 207.892 250.891)" fill="#CAD2FF"/>
<rect x="229.853" y="249.414" width="118" height="118" rx="9" transform="rotate(45 229.853 249.414)" fill="white" stroke="#0862EE" stroke-width="2"/>
<path d="M239.177 314L245.177 308L239.177 302" stroke="#CFE5FF" stroke-width="3" stroke-linecap="round" stroke-linejoin="round"/>
<path d="M221.177 302L215.177 308L221.177 314" stroke="#CFE5FF" stroke-width="3" stroke-linecap="round" stroke-linejoin="round"/>
<path d="M233.927 296L226.427 320" stroke="#CFE5FF" stroke-width="3" stroke-linecap="round" stroke-linejoin="round"/>
<path d="M185.667 355.23V350.351C186.098 350.351 186.421 350.26 186.636 350.079C186.852 349.898 187.01 349.665 187.112 349.382C187.214 349.11 187.294 348.798 187.35 348.447C187.418 348.096 187.475 347.727 187.52 347.342C187.566 346.957 187.6 346.571 187.622 346.186C187.69 345.132 187.736 344.089 187.758 343.058C187.792 342.027 187.815 341.001 187.826 339.981H195.782V350.351H197.227V355.23H195.425V352H187.469V355.23H185.667ZM188.727 350.351H193.98V341.63H189.543L189.407 345.999C189.396 346.26 189.379 346.566 189.356 346.917C189.345 347.268 189.317 347.642 189.271 348.039C189.226 348.424 189.158 348.821 189.067 349.229C188.988 349.626 188.875 350 188.727 350.351ZM202.613 352.102C201.683 352.102 200.896 351.915 200.25 351.541C199.604 351.156 199.111 350.617 198.771 349.926C198.442 349.235 198.278 348.436 198.278 347.529C198.278 346.611 198.442 345.812 198.771 345.132C199.111 344.441 199.604 343.902 200.25 343.517C200.896 343.12 201.689 342.922 202.63 342.922C203.559 342.922 204.347 343.12 204.993 343.517C205.639 343.902 206.126 344.441 206.455 345.132C206.783 345.823 206.948 346.628 206.948 347.546C206.948 348.441 206.778 349.235 206.438 349.926C206.109 350.617 205.622 351.156 204.976 351.541C204.341 351.915 203.553 352.102 202.613 352.102ZM202.613 350.538C203.225 350.538 203.718 350.402 204.092 350.13C204.477 349.858 204.76 349.495 204.942 349.042C205.123 348.589 205.214 348.09 205.214 347.546C205.214 347.002 205.123 346.503 204.942 346.05C204.76 345.585 204.477 345.217 204.092 344.945C203.718 344.662 203.225 344.52 202.613 344.52C202.012 344.52 201.519 344.662 201.134 344.945C200.748 345.217 200.465 345.58 200.284 346.033C200.114 346.486 200.029 346.991 200.029 347.546C200.029 348.09 200.114 348.589 200.284 349.042C200.465 349.495 200.748 349.858 201.134 350.13C201.519 350.402 202.012 350.538 202.613 350.538ZM208.745 355.264V343.041H210.411L210.496 344.333C210.813 343.857 211.232 343.506 211.754 343.279C212.275 343.041 212.83 342.922 213.42 342.922C214.304 342.922 215.035 343.126 215.613 343.534C216.191 343.942 216.621 344.492 216.905 345.183C217.188 345.874 217.33 346.656 217.33 347.529C217.33 348.402 217.182 349.184 216.888 349.875C216.604 350.566 216.162 351.11 215.562 351.507C214.972 351.904 214.219 352.102 213.301 352.102C212.859 352.102 212.462 352.057 212.111 351.966C211.759 351.875 211.453 351.745 211.193 351.575C210.932 351.394 210.7 351.201 210.496 350.997V355.264H208.745ZM213.097 350.538C213.709 350.538 214.196 350.402 214.559 350.13C214.921 349.847 215.182 349.478 215.341 349.025C215.499 348.572 215.579 348.079 215.579 347.546C215.579 346.991 215.494 346.486 215.324 346.033C215.165 345.568 214.899 345.2 214.525 344.928C214.162 344.645 213.675 344.503 213.063 344.503C212.507 344.503 212.037 344.645 211.652 344.928C211.266 345.2 210.972 345.568 210.768 346.033C210.575 346.498 210.479 347.002 210.479 347.546C210.479 348.101 210.569 348.611 210.751 349.076C210.943 349.529 211.232 349.886 211.618 350.147C212.014 350.408 212.507 350.538 213.097 350.538ZM221.893 352.102C221.496 352.102 221.111 352.051 220.737 351.949C220.363 351.836 220.028 351.671 219.734 351.456C219.439 351.229 219.201 350.952 219.02 350.623C218.85 350.283 218.765 349.886 218.765 349.433C218.765 348.889 218.867 348.441 219.071 348.09C219.286 347.727 219.569 347.45 219.921 347.257C220.272 347.053 220.674 346.911 221.128 346.832C221.592 346.741 222.074 346.696 222.573 346.696H224.766C224.766 346.254 224.698 345.869 224.562 345.54C224.426 345.2 224.21 344.939 223.916 344.758C223.632 344.565 223.253 344.469 222.777 344.469C222.493 344.469 222.221 344.503 221.961 344.571C221.711 344.628 221.496 344.724 221.315 344.86C221.133 344.996 221.009 345.177 220.941 345.404H219.105C219.173 344.973 219.326 344.605 219.564 344.299C219.802 343.982 220.096 343.721 220.448 343.517C220.799 343.313 221.173 343.166 221.57 343.075C221.978 342.973 222.391 342.922 222.811 342.922C223.672 342.922 224.369 343.092 224.902 343.432C225.446 343.772 225.842 344.259 226.092 344.894C226.341 345.529 226.466 346.282 226.466 347.155V352H224.953L224.885 350.895C224.624 351.224 224.324 351.479 223.984 351.66C223.655 351.83 223.309 351.943 222.947 352C222.584 352.068 222.233 352.102 221.893 352.102ZM222.199 350.623C222.72 350.623 223.173 350.538 223.559 350.368C223.944 350.187 224.239 349.932 224.443 349.603C224.658 349.263 224.766 348.861 224.766 348.396V348.039H223.168C222.839 348.039 222.516 348.05 222.199 348.073C221.881 348.084 221.592 348.13 221.332 348.209C221.082 348.277 220.884 348.396 220.737 348.566C220.589 348.736 220.516 348.98 220.516 349.297C220.516 349.603 220.595 349.852 220.754 350.045C220.912 350.238 221.122 350.385 221.383 350.487C221.643 350.578 221.915 350.623 222.199 350.623ZM232.528 352.102C231.939 352.102 231.412 352.017 230.947 351.847C230.482 351.677 230.086 351.439 229.757 351.133C229.428 350.816 229.156 350.447 228.941 350.028C228.726 349.597 228.561 349.133 228.448 348.634C228.346 348.124 228.295 347.586 228.295 347.019C228.295 346.158 228.323 345.359 228.38 344.622C228.437 343.885 228.573 343.228 228.788 342.65C229.003 342.072 229.343 341.59 229.808 341.205C230.273 340.82 230.907 340.536 231.712 340.355C232.165 340.253 232.619 340.168 233.072 340.1C233.537 340.032 234.013 339.97 234.5 339.913C234.772 339.868 235.01 339.834 235.214 339.811C235.418 339.777 235.605 339.749 235.775 339.726C235.956 339.692 236.121 339.664 236.268 339.641V341.324C236.155 341.369 236.024 341.403 235.877 341.426C235.741 341.449 235.599 341.471 235.452 341.494C235.305 341.517 235.157 341.534 235.01 341.545C234.863 341.556 234.715 341.573 234.568 341.596C234.421 341.607 234.279 341.624 234.143 341.647C233.712 341.681 233.265 341.721 232.8 341.766C232.347 341.811 231.916 341.908 231.508 342.055C231.111 342.191 230.783 342.452 230.522 342.837C230.397 343.018 230.29 343.234 230.199 343.483C230.108 343.732 230.04 343.993 229.995 344.265C229.961 344.537 229.938 344.798 229.927 345.047C230.165 344.707 230.448 344.435 230.777 344.231C231.117 344.027 231.474 343.88 231.848 343.789C232.222 343.698 232.579 343.653 232.919 343.653C233.735 343.653 234.426 343.829 234.993 344.18C235.56 344.52 235.99 345.002 236.285 345.625C236.58 346.237 236.727 346.945 236.727 347.75C236.727 348.589 236.557 349.337 236.217 349.994C235.888 350.651 235.407 351.167 234.772 351.541C234.149 351.915 233.401 352.102 232.528 352.102ZM232.545 350.555C233.078 350.555 233.52 350.43 233.871 350.181C234.234 349.932 234.506 349.597 234.687 349.178C234.88 348.759 234.976 348.305 234.976 347.818C234.976 347.342 234.88 346.911 234.687 346.526C234.506 346.129 234.239 345.818 233.888 345.591C233.537 345.364 233.1 345.251 232.579 345.251C232.069 345.251 231.627 345.37 231.253 345.608C230.89 345.846 230.613 346.163 230.42 346.56C230.227 346.957 230.131 347.387 230.131 347.852C230.131 348.317 230.222 348.759 230.403 349.178C230.584 349.597 230.851 349.932 231.202 350.181C231.553 350.43 232.001 350.555 232.545 350.555ZM242.523 352.102C241.593 352.102 240.806 351.915 240.16 351.541C239.514 351.156 239.021 350.617 238.681 349.926C238.352 349.235 238.188 348.436 238.188 347.529C238.188 346.611 238.352 345.812 238.681 345.132C239.021 344.441 239.514 343.902 240.16 343.517C240.806 343.12 241.599 342.922 242.54 342.922C243.469 342.922 244.257 343.12 244.903 343.517C245.549 343.902 246.036 344.441 246.365 345.132C246.693 345.823 246.858 346.628 246.858 347.546C246.858 348.441 246.688 349.235 246.348 349.926C246.019 350.617 245.532 351.156 244.886 351.541C244.251 351.915 243.463 352.102 242.523 352.102ZM242.523 350.538C243.135 350.538 243.628 350.402 244.002 350.13C244.387 349.858 244.67 349.495 244.852 349.042C245.033 348.589 245.124 348.09 245.124 347.546C245.124 347.002 245.033 346.503 244.852 346.05C244.67 345.585 244.387 345.217 244.002 344.945C243.628 344.662 243.135 344.52 242.523 344.52C241.922 344.52 241.429 344.662 241.044 344.945C240.658 345.217 240.375 345.58 240.194 346.033C240.024 346.486 239.939 346.991 239.939 347.546C239.939 348.09 240.024 348.589 240.194 349.042C240.375 349.495 240.658 349.858 241.044 350.13C241.429 350.402 241.922 350.538 242.523 350.538ZM250.763 352V344.605H247.737V343.041H255.54V344.605H252.514V352H250.763ZM256.756 352V343.041H258.507V346.764H260.003L262.502 343.041H264.508L261.567 347.291L264.678 352H262.638L260.173 348.311H258.507V352H256.756ZM265.871 352V343.041H267.622V349.382C267.701 349.246 267.803 349.099 267.928 348.94C268.052 348.77 268.149 348.634 268.217 348.532L272.314 343.041H273.946V352H272.195V345.693C272.104 345.84 272.008 345.988 271.906 346.135C271.804 346.271 271.707 346.396 271.617 346.509L267.52 352H265.871Z" fill="#0862EE"/>
<path d="M85 350.293L335.293 100" stroke="#CAD2FF" stroke-linecap="round"/>
<line x1="105.707" y1="100" x2="356" y2="350.293" stroke="#CAD2FF" stroke-linecap="round"/>
<rect x="187.892" y="2.89111" width="120" height="120" rx="10" transform="rotate(30 187.892 2.89111)" fill="#CAD2FF"/>
<rect x="209.853" y="1.41421" width="118" height="118" rx="9" transform="rotate(45 209.853 1.41421)" fill="white" stroke="#0862EE" stroke-width="2"/>
<path d="M223.992 65.835C223.038 68.0917 221.545 70.0803 219.645 71.6269C217.744 73.1736 215.494 74.2311 213.091 74.7072C210.687 75.1832 208.204 75.0632 205.857 74.3577C203.511 73.6522 201.373 72.3826 199.631 70.66C197.888 68.9374 196.594 66.8141 195.862 64.4759C195.13 62.1377 194.981 59.6557 195.43 57.2469C195.878 54.8382 196.91 52.5759 198.435 50.658C199.96 48.7401 201.931 47.225 204.177 46.245" stroke="#CFE5FF" stroke-width="3" stroke-linecap="round" stroke-linejoin="round"/>
<path d="M225.177 60C225.177 58.0302 224.789 56.0796 224.035 54.2597C223.281 52.4399 222.176 50.7863 220.784 49.3934C219.391 48.0005 217.737 46.8956 215.917 46.1418C214.097 45.388 212.147 45 210.177 45V60H225.177Z" stroke="#CFE5FF" stroke-width="3" stroke-linecap="round" stroke-linejoin="round"/>
<path d="M167.413 104.136C166.518 104.136 165.725 103.994 165.033 103.711C164.342 103.428 163.775 103.025 163.333 102.504C162.891 101.971 162.585 101.342 162.415 100.617H164.302C164.416 100.991 164.614 101.32 164.897 101.603C165.192 101.886 165.555 102.107 165.985 102.266C166.416 102.413 166.903 102.487 167.447 102.487C168.241 102.487 168.904 102.328 169.436 102.011C169.969 101.682 170.377 101.24 170.66 100.685C170.944 100.13 171.097 99.5007 171.119 98.798H165.849V97.183H171.119C171.085 96.5143 170.927 95.9023 170.643 95.347C170.371 94.7917 169.975 94.344 169.453 94.004C168.932 93.6527 168.275 93.477 167.481 93.477C166.926 93.477 166.433 93.5563 166.002 93.715C165.583 93.8737 165.232 94.0947 164.948 94.378C164.665 94.65 164.467 94.9787 164.353 95.364H162.568C162.738 94.548 163.067 93.8793 163.554 93.358C164.042 92.8367 164.637 92.457 165.339 92.219C166.042 91.9697 166.784 91.845 167.566 91.845C168.507 91.845 169.317 92.0037 169.997 92.321C170.677 92.627 171.238 93.0633 171.68 93.63C172.134 94.1967 172.468 94.8597 172.683 95.619C172.899 96.367 173.006 97.1773 173.006 98.05C173.006 99.2513 172.797 100.311 172.377 101.229C171.969 102.136 171.346 102.85 170.507 103.371C169.68 103.881 168.649 104.136 167.413 104.136ZM174.824 104V95.041H176.575V98.764H178.071L180.57 95.041H182.576L179.635 99.291L182.746 104H180.706L178.241 100.311H176.575V104H174.824ZM187.665 104.102C186.725 104.102 185.937 103.909 185.302 103.524C184.679 103.139 184.209 102.606 183.891 101.926C183.585 101.235 183.432 100.441 183.432 99.546C183.432 98.662 183.591 97.8743 183.908 97.183C184.237 96.4803 184.724 95.9307 185.37 95.534C186.028 95.126 186.838 94.922 187.801 94.922C188.459 94.922 189.042 95.0353 189.552 95.262C190.062 95.4773 190.476 95.8003 190.793 96.231C191.122 96.6503 191.337 97.1773 191.439 97.812H189.688C189.541 97.3473 189.292 97.013 188.94 96.809C188.6 96.605 188.198 96.503 187.733 96.503C187.11 96.503 186.611 96.6503 186.237 96.945C185.863 97.2397 185.591 97.6193 185.421 98.084C185.263 98.5487 185.183 99.036 185.183 99.546C185.183 100.079 185.268 100.572 185.438 101.025C185.62 101.478 185.892 101.847 186.254 102.13C186.628 102.402 187.116 102.538 187.716 102.538C188.17 102.538 188.589 102.442 188.974 102.249C189.36 102.045 189.609 101.705 189.722 101.229H191.524C191.422 101.886 191.184 102.43 190.81 102.861C190.436 103.28 189.972 103.592 189.416 103.796C188.872 104 188.289 104.102 187.665 104.102ZM193.219 104V95.041H200.886V104H199.135V96.605H194.97V104H193.219ZM206.974 104.102C206.034 104.102 205.246 103.909 204.611 103.524C203.977 103.139 203.495 102.606 203.166 101.926C202.849 101.235 202.69 100.441 202.69 99.546C202.69 98.6393 202.855 97.8403 203.183 97.149C203.523 96.4577 204.011 95.9137 204.645 95.517C205.291 95.1203 206.068 94.922 206.974 94.922C207.643 94.922 208.227 95.0467 208.725 95.296C209.235 95.534 209.66 95.8683 210 96.299C210.352 96.7183 210.607 97.1943 210.765 97.727C210.924 98.2597 210.998 98.8207 210.986 99.41C210.975 99.5347 210.964 99.6537 210.952 99.767C210.952 99.8803 210.947 99.9993 210.935 100.124H204.458C204.492 100.577 204.606 100.991 204.798 101.365C205.002 101.739 205.286 102.039 205.648 102.266C206.011 102.481 206.459 102.589 206.991 102.589C207.286 102.589 207.569 102.555 207.841 102.487C208.125 102.408 208.374 102.289 208.589 102.13C208.816 101.96 208.975 101.745 209.065 101.484H210.833C210.686 102.085 210.42 102.583 210.034 102.98C209.66 103.365 209.201 103.649 208.657 103.83C208.125 104.011 207.564 104.102 206.974 104.102ZM204.492 98.73H209.252C209.241 98.288 209.139 97.897 208.946 97.557C208.754 97.2057 208.487 96.9337 208.147 96.741C207.807 96.537 207.399 96.435 206.923 96.435C206.402 96.435 205.966 96.5427 205.614 96.758C205.274 96.9733 205.008 97.2567 204.815 97.608C204.634 97.948 204.526 98.322 204.492 98.73ZM212.792 107.264V95.041H214.458L214.543 96.333C214.86 95.857 215.28 95.5057 215.801 95.279C216.322 95.041 216.878 94.922 217.467 94.922C218.351 94.922 219.082 95.126 219.66 95.534C220.238 95.942 220.669 96.4917 220.952 97.183C221.235 97.8743 221.377 98.6563 221.377 99.529C221.377 100.402 221.23 101.184 220.935 101.875C220.652 102.566 220.21 103.11 219.609 103.507C219.02 103.904 218.266 104.102 217.348 104.102C216.906 104.102 216.509 104.057 216.158 103.966C215.807 103.875 215.501 103.745 215.24 103.575C214.979 103.394 214.747 103.201 214.543 102.997V107.264H212.792ZM217.144 102.538C217.756 102.538 218.243 102.402 218.606 102.13C218.969 101.847 219.229 101.478 219.388 101.025C219.547 100.572 219.626 100.079 219.626 99.546C219.626 98.9907 219.541 98.4863 219.371 98.033C219.212 97.5683 218.946 97.2 218.572 96.928C218.209 96.6447 217.722 96.503 217.11 96.503C216.555 96.503 216.084 96.6447 215.699 96.928C215.314 97.2 215.019 97.5683 214.815 98.033C214.622 98.4977 214.526 99.002 214.526 99.546C214.526 100.101 214.617 100.611 214.798 101.076C214.991 101.529 215.28 101.886 215.665 102.147C216.062 102.408 216.555 102.538 217.144 102.538ZM225.226 104V96.605H222.2V95.041H230.003V96.605H226.977V104H225.226ZM231.22 104V95.041H232.971V101.382C233.05 101.246 233.152 101.099 233.277 100.94C233.401 100.77 233.498 100.634 233.566 100.532L237.663 95.041H239.295V104H237.544V97.693C237.453 97.8403 237.357 97.9877 237.255 98.135C237.153 98.271 237.056 98.3957 236.966 98.509L232.869 104H231.22ZM244.83 104.102C244.376 104.102 243.929 104.062 243.487 103.983C243.045 103.892 242.631 103.745 242.246 103.541C241.872 103.337 241.566 103.065 241.328 102.725C241.09 102.385 240.954 101.954 240.92 101.433H242.637C242.682 101.716 242.829 101.943 243.079 102.113C243.328 102.283 243.611 102.408 243.929 102.487C244.246 102.555 244.541 102.589 244.813 102.589C245.107 102.589 245.408 102.561 245.714 102.504C246.02 102.436 246.275 102.311 246.479 102.13C246.694 101.937 246.802 101.665 246.802 101.314C246.802 100.997 246.722 100.759 246.564 100.6C246.405 100.441 246.195 100.334 245.935 100.277C245.674 100.22 245.385 100.192 245.068 100.192H243.487V98.764H244.762C244.977 98.764 245.187 98.747 245.391 98.713C245.595 98.6677 245.776 98.6053 245.935 98.526C246.105 98.4353 246.241 98.3163 246.343 98.169C246.445 98.0103 246.496 97.812 246.496 97.574C246.496 97.2907 246.411 97.0697 246.241 96.911C246.082 96.741 245.872 96.622 245.612 96.554C245.351 96.486 245.085 96.452 244.813 96.452C244.541 96.452 244.263 96.4803 243.98 96.537C243.696 96.5937 243.453 96.7013 243.249 96.86C243.045 97.0187 242.92 97.2397 242.875 97.523H241.175C241.22 96.8657 241.424 96.35 241.787 95.976C242.161 95.5907 242.62 95.3187 243.164 95.16C243.708 95.0013 244.252 94.922 244.796 94.922C245.204 94.922 245.606 94.9617 246.003 95.041C246.399 95.1203 246.762 95.2563 247.091 95.449C247.431 95.6303 247.697 95.8797 247.89 96.197C248.082 96.5143 248.179 96.9053 248.179 97.37C248.179 97.7553 248.088 98.1067 247.907 98.424C247.737 98.73 247.465 98.9793 247.091 99.172C247.623 99.3533 247.997 99.6367 248.213 100.022C248.428 100.396 248.536 100.838 248.536 101.348C248.536 101.847 248.428 102.272 248.213 102.623C247.997 102.963 247.714 103.246 247.363 103.473C247.011 103.688 246.615 103.847 246.173 103.949C245.731 104.051 245.283 104.102 244.83 104.102ZM253.084 104.102C252.687 104.102 252.302 104.051 251.928 103.949C251.554 103.836 251.219 103.671 250.925 103.456C250.63 103.229 250.392 102.952 250.211 102.623C250.041 102.283 249.956 101.886 249.956 101.433C249.956 100.889 250.058 100.441 250.262 100.09C250.477 99.7273 250.76 99.4497 251.112 99.257C251.463 99.053 251.865 98.9113 252.319 98.832C252.783 98.7413 253.265 98.696 253.764 98.696H255.957C255.957 98.254 255.889 97.8687 255.753 97.54C255.617 97.2 255.401 96.9393 255.107 96.758C254.823 96.5653 254.444 96.469 253.968 96.469C253.684 96.469 253.412 96.503 253.152 96.571C252.902 96.6277 252.687 96.724 252.506 96.86C252.324 96.996 252.2 97.1773 252.132 97.404H250.296C250.364 96.9733 250.517 96.605 250.755 96.299C250.993 95.9817 251.287 95.721 251.639 95.517C251.99 95.313 252.364 95.1657 252.761 95.075C253.169 94.973 253.582 94.922 254.002 94.922C254.863 94.922 255.56 95.092 256.093 95.432C256.637 95.772 257.033 96.2593 257.283 96.894C257.532 97.5287 257.657 98.2823 257.657 99.155V104H256.144L256.076 102.895C255.815 103.224 255.515 103.479 255.175 103.66C254.846 103.83 254.5 103.943 254.138 104C253.775 104.068 253.424 104.102 253.084 104.102ZM253.39 102.623C253.911 102.623 254.364 102.538 254.75 102.368C255.135 102.187 255.43 101.932 255.634 101.603C255.849 101.263 255.957 100.861 255.957 100.396V100.039H254.359C254.03 100.039 253.707 100.05 253.39 100.073C253.072 100.084 252.783 100.13 252.523 100.209C252.273 100.277 252.075 100.396 251.928 100.566C251.78 100.736 251.707 100.98 251.707 101.297C251.707 101.603 251.786 101.852 251.945 102.045C252.103 102.238 252.313 102.385 252.574 102.487C252.834 102.578 253.106 102.623 253.39 102.623Z" fill="#0862EE"/>
<rect x="62.8918" y="121.891" width="120" height="120" rx="10" transform="rotate(30 62.8918 121.891)" fill="#CAD2FF"/>
<rect x="84.8528" y="120.414" width="118" height="118" rx="9" transform="rotate(45 84.8528 120.414)" fill="white" stroke="#0862EE" stroke-width="2"/>
<path d="M98.677 178.25C98.6822 180.23 98.2196 182.183 97.327 183.95C96.2687 186.068 94.6416 187.849 92.6282 189.094C90.6147 190.339 88.2944 190.999 85.927 191C83.9472 191.005 81.9942 190.543 80.227 189.65L71.677 192.5L74.527 183.95C73.6344 182.183 73.1718 180.23 73.177 178.25C73.1779 175.883 73.8379 173.562 75.0831 171.549C76.3282 169.535 78.1094 167.908 80.227 166.85C81.9942 165.957 83.9472 165.495 85.927 165.5H86.677C89.8035 165.672 92.7566 166.992 94.9707 169.206C97.1849 171.42 98.5045 174.373 98.677 177.5V178.25Z" stroke="#CFE5FF" stroke-width="3" stroke-linecap="round" stroke-linejoin="round"/>
<path d="M38.9083 223V210.981H48.5473V223H46.7453V212.613H40.7103V223H38.9083ZM55.0311 223.102C54.1018 223.102 53.3141 222.915 52.6681 222.541C52.0221 222.156 51.5291 221.617 51.1891 220.926C50.8604 220.235 50.6961 219.436 50.6961 218.529C50.6961 217.611 50.8604 216.812 51.1891 216.132C51.5291 215.441 52.0221 214.902 52.6681 214.517C53.3141 214.12 54.1074 213.922 55.0481 213.922C55.9774 213.922 56.7651 214.12 57.4111 214.517C58.0571 214.902 58.5444 215.441 58.8731 216.132C59.2018 216.823 59.3661 217.628 59.3661 218.546C59.3661 219.441 59.1961 220.235 58.8561 220.926C58.5274 221.617 58.0401 222.156 57.3941 222.541C56.7594 222.915 55.9718 223.102 55.0311 223.102ZM55.0311 221.538C55.6431 221.538 56.1361 221.402 56.5101 221.13C56.8954 220.858 57.1788 220.495 57.3601 220.042C57.5414 219.589 57.6321 219.09 57.6321 218.546C57.6321 218.002 57.5414 217.503 57.3601 217.05C57.1788 216.585 56.8954 216.217 56.5101 215.945C56.1361 215.662 55.6431 215.52 55.0311 215.52C54.4304 215.52 53.9374 215.662 53.5521 215.945C53.1668 216.217 52.8834 216.58 52.7021 217.033C52.5321 217.486 52.4471 217.991 52.4471 218.546C52.4471 219.09 52.5321 219.589 52.7021 220.042C52.8834 220.495 53.1668 220.858 53.5521 221.13C53.9374 221.402 54.4304 221.538 55.0311 221.538ZM60.2158 225.669V221.453C60.5332 221.453 60.7882 221.368 60.9808 221.198C61.1735 221.028 61.3265 220.807 61.4398 220.535C61.5532 220.263 61.6382 219.963 61.6948 219.634C61.7628 219.294 61.8195 218.965 61.8648 218.648C61.9215 218.138 61.9555 217.622 61.9668 217.101C61.9895 216.568 62.0008 216.126 62.0008 215.775C62.0122 215.492 62.0178 215.208 62.0178 214.925C62.0178 214.63 62.0178 214.336 62.0178 214.041H68.6648V221.453H69.8208V225.669H68.1038V223H61.9328V225.669H60.2158ZM62.8338 221.453H66.8968V215.605H63.6328C63.6328 216.047 63.6272 216.534 63.6158 217.067C63.6045 217.6 63.5818 218.104 63.5478 218.58C63.5252 218.852 63.4968 219.158 63.4628 219.498C63.4288 219.838 63.3665 220.178 63.2758 220.518C63.1852 220.858 63.0378 221.17 62.8338 221.453ZM71.3057 225.669V221.453C71.623 221.453 71.878 221.368 72.0707 221.198C72.2633 221.028 72.4163 220.807 72.5297 220.535C72.643 220.263 72.728 219.963 72.7847 219.634C72.8527 219.294 72.9093 218.965 72.9547 218.648C73.0113 218.138 73.0453 217.622 73.0567 217.101C73.0793 216.568 73.0907 216.126 73.0907 215.775C73.102 215.492 73.1077 215.208 73.1077 214.925C73.1077 214.63 73.1077 214.336 73.1077 214.041H79.7547V221.453H80.9107V225.669H79.1937V223H73.0227V225.669H71.3057ZM73.9237 221.453H77.9867V215.605H74.7227C74.7227 216.047 74.717 216.534 74.7057 217.067C74.6943 217.6 74.6717 218.104 74.6377 218.58C74.615 218.852 74.5867 219.158 74.5527 219.498C74.5187 219.838 74.4563 220.178 74.3657 220.518C74.275 220.858 74.1277 221.17 73.9237 221.453ZM86.2408 223.102C85.3002 223.102 84.5125 222.909 83.8778 222.524C83.2432 222.139 82.7615 221.606 82.4328 220.926C82.1155 220.235 81.9568 219.441 81.9568 218.546C81.9568 217.639 82.1212 216.84 82.4498 216.149C82.7898 215.458 83.2772 214.914 83.9118 214.517C84.5578 214.12 85.3342 213.922 86.2408 213.922C86.9095 213.922 87.4932 214.047 87.9918 214.296C88.5018 214.534 88.9268 214.868 89.2668 215.299C89.6182 215.718 89.8732 216.194 90.0318 216.727C90.1905 217.26 90.2642 217.821 90.2528 218.41C90.2415 218.535 90.2302 218.654 90.2188 218.767C90.2188 218.88 90.2132 218.999 90.2018 219.124H83.7248C83.7588 219.577 83.8722 219.991 84.0648 220.365C84.2688 220.739 84.5522 221.039 84.9148 221.266C85.2775 221.481 85.7252 221.589 86.2578 221.589C86.5525 221.589 86.8358 221.555 87.1078 221.487C87.3912 221.408 87.6405 221.289 87.8558 221.13C88.0825 220.96 88.2412 220.745 88.3318 220.484H90.0998C89.9525 221.085 89.6862 221.583 89.3008 221.98C88.9268 222.365 88.4678 222.649 87.9238 222.83C87.3912 223.011 86.8302 223.102 86.2408 223.102ZM83.7588 217.73H88.5188C88.5075 217.288 88.4055 216.897 88.2128 216.557C88.0202 216.206 87.7538 215.934 87.4138 215.741C87.0738 215.537 86.6658 215.435 86.1898 215.435C85.6685 215.435 85.2322 215.543 84.8808 215.758C84.5408 215.973 84.2745 216.257 84.0818 216.608C83.9005 216.948 83.7928 217.322 83.7588 217.73ZM92.0585 226.264V214.041H93.7245L93.8095 215.333C94.1269 214.857 94.5462 214.506 95.0675 214.279C95.5889 214.041 96.1442 213.922 96.7335 213.922C97.6175 213.922 98.3485 214.126 98.9265 214.534C99.5045 214.942 99.9352 215.492 100.219 216.183C100.502 216.874 100.644 217.656 100.644 218.529C100.644 219.402 100.496 220.184 100.202 220.875C99.9182 221.566 99.4762 222.11 98.8755 222.507C98.2862 222.904 97.5325 223.102 96.6145 223.102C96.1725 223.102 95.7759 223.057 95.4245 222.966C95.0732 222.875 94.7672 222.745 94.5065 222.575C94.2459 222.394 94.0135 222.201 93.8095 221.997V226.264H92.0585ZM96.4105 221.538C97.0225 221.538 97.5099 221.402 97.8725 221.13C98.2352 220.847 98.4959 220.478 98.6545 220.025C98.8132 219.572 98.8925 219.079 98.8925 218.546C98.8925 217.991 98.8075 217.486 98.6375 217.033C98.4789 216.568 98.2125 216.2 97.8385 215.928C97.4759 215.645 96.9885 215.503 96.3765 215.503C95.8212 215.503 95.3509 215.645 94.9655 215.928C94.5802 216.2 94.2855 216.568 94.0815 217.033C93.8889 217.498 93.7925 218.002 93.7925 218.546C93.7925 219.101 93.8832 219.611 94.0645 220.076C94.2572 220.529 94.5462 220.886 94.9315 221.147C95.3282 221.408 95.8212 221.538 96.4105 221.538ZM101.335 223L104.106 218.308L101.556 214.041H103.409L105.585 217.781H106.894V214.041H108.662V217.781H109.971L112.13 214.041H114L111.45 218.308L114.221 223H112.215L110.107 219.294H108.662V223H106.894V219.294H105.466L103.341 223H101.335ZM115.483 223V214.041H117.234V217.764H118.73L121.229 214.041H123.235L120.294 218.291L123.405 223H121.365L118.9 219.311H117.234V223H115.483ZM127.254 223.102C126.857 223.102 126.472 223.051 126.098 222.949C125.724 222.836 125.389 222.671 125.095 222.456C124.8 222.229 124.562 221.952 124.381 221.623C124.211 221.283 124.126 220.886 124.126 220.433C124.126 219.889 124.228 219.441 124.432 219.09C124.647 218.727 124.93 218.45 125.282 218.257C125.633 218.053 126.035 217.911 126.489 217.832C126.953 217.741 127.435 217.696 127.934 217.696H130.127C130.127 217.254 130.059 216.869 129.923 216.54C129.787 216.2 129.571 215.939 129.277 215.758C128.993 215.565 128.614 215.469 128.138 215.469C127.854 215.469 127.582 215.503 127.322 215.571C127.072 215.628 126.857 215.724 126.676 215.86C126.494 215.996 126.37 216.177 126.302 216.404H124.466C124.534 215.973 124.687 215.605 124.925 215.299C125.163 214.982 125.457 214.721 125.809 214.517C126.16 214.313 126.534 214.166 126.931 214.075C127.339 213.973 127.752 213.922 128.172 213.922C129.033 213.922 129.73 214.092 130.263 214.432C130.807 214.772 131.203 215.259 131.453 215.894C131.702 216.529 131.827 217.282 131.827 218.155V223H130.314L130.246 221.895C129.985 222.224 129.685 222.479 129.345 222.66C129.016 222.83 128.67 222.943 128.308 223C127.945 223.068 127.594 223.102 127.254 223.102ZM127.56 221.623C128.081 221.623 128.534 221.538 128.92 221.368C129.305 221.187 129.6 220.932 129.804 220.603C130.019 220.263 130.127 219.861 130.127 219.396V219.039H128.529C128.2 219.039 127.877 219.05 127.56 219.073C127.242 219.084 126.953 219.13 126.693 219.209C126.443 219.277 126.245 219.396 126.098 219.566C125.95 219.736 125.877 219.98 125.877 220.297C125.877 220.603 125.956 220.852 126.115 221.045C126.273 221.238 126.483 221.385 126.744 221.487C127.004 221.578 127.276 221.623 127.56 221.623Z" fill="#0862EE"/>
<path d="M376.25 195.083C376.257 197.503 375.666 199.89 374.525 202.05C373.173 204.638 371.094 206.815 368.521 208.337C365.948 209.859 362.983 210.666 359.958 210.667C357.429 210.673 354.933 210.108 352.675 209.017L341.75 212.5L345.392 202.05C344.251 199.89 343.66 197.503 343.667 195.083C343.668 192.19 344.511 189.354 346.102 186.893C347.693 184.432 349.969 182.444 352.675 181.15C354.933 180.059 357.429 179.494 359.958 179.5H360.917C364.912 179.711 368.685 181.324 371.514 184.03C374.343 186.736 376.03 190.345 376.25 194.167V195.083Z" stroke="#CFE5FF" stroke-width="3" stroke-linecap="round" stroke-linejoin="round"/>
<defs>
<filter id="filter0_d_4632_1355" x="275.142" y="123.142" width="184.421" height="184.421" filterUnits="userSpaceOnUse" color-interpolation-filters="sRGB">
<feFlood flood-opacity="0" result="BackgroundImageFix"/>
<feColorMatrix in="SourceAlpha" type="matrix" values="0 0 0 0 0 0 0 0 0 0 0 0 0 0 0 0 0 0 127 0" result="hardAlpha"/>
<feMorphology radius="15" operator="erode" in="SourceAlpha" result="effect1_dropShadow_4632_1355"/>
<feOffset dx="22" dy="22"/>
<feGaussianBlur stdDeviation="8"/>
<feComposite in2="hardAlpha" operator="out"/>
<feColorMatrix type="matrix" values="0 0 0 0 0 0 0 0 0 0.265761 0 0 0 0 0.679167 0 0 0 0.29 0"/>
<feBlend mode="normal" in2="BackgroundImageFix" result="effect1_dropShadow_4632_1355"/>
<feBlend mode="normal" in="SourceGraphic" in2="effect1_dropShadow_4632_1355" result="shape"/>
</filter>
</defs>
</svg>
